<?xml version="1.0" standalone="no"?>
<!DOCTYPE svg PUBLIC "-//W3C//DTD SVG 1.1//EN" "http://www.w3.org/Graphics/SVG/1.1/DTD/svg11.dtd" >
<svg xmlns="http://www.w3.org/2000/svg" xmlns:xlink="http://www.w3.org/1999/xlink" version="1.1">
<metadata>
Created by FontForge 20161116 at Tue Feb 28 19:48:06 2017
 By Jimmy Warting
\251 FontSite Inc., 1996-2017. All Rights Reserved. www.fontsite.com
</metadata>
<defs>
<font id="franklin_gothic_fs_bookitalic" horiz-adv-x="587" >
  <font-face 
    font-family="Franklin Gothic FS Book"
    font-weight="400"
    font-style="italic"
    font-stretch="normal"
    units-per-em="1000"
    panose-1="2 11 5 4 3 5 3 9 2 4"
    ascent="827"
    descent="-173"
    x-height="495"
    cap-height="667"
    bbox="-201 -251 1085 887"
    underline-thickness="67"
    underline-position="-100"
    slope="-10"
    stemh="59"
    stemv="82"
    unicode-range="U+000D-FB02"
  />
<missing-glyph horiz-adv-x="500" 
d="M50 0v667h400v-667h-400zM250 373l140 256h-280zM412 78v511l-140 -256zM88 78l140 255l-140 256v-511zM110 38h280l-140 255z" />
    <glyph glyph-name="f_i" unicode="fi" horiz-adv-x="485" 
d="M51 0l73 435h-93l10 60h93c31 144 75 189 182 189c19 0 33 -1 51 -4l-15 -60c-15 2 -22 2 -31 2c-48 0 -80 -21 -94 -60c-5 -15 -9 -32 -16 -67h120l-10 -60h-120l-73 -435h-77zM378 579l15 88h99l-14 -88h-100zM291 0l83 495h76l-83 -495h-76z" />
    <glyph glyph-name="f_l" unicode="fl" horiz-adv-x="485" 
d="M51 0l73 435h-93l10 60h93c29 141 76 189 188 189c17 0 27 -1 45 -4l-15 -61c-13 3 -22 4 -33 4c-44 0 -72 -16 -87 -51c-9 -19 -12 -32 -21 -77h120l-10 -60h-120l-73 -435h-77zM291 0l111 667h77l-112 -667h-76z" />
    <glyph glyph-name=".notdef" horiz-adv-x="500" 
d="M50 0v667h400v-667h-400zM250 373l140 256h-280zM412 78v511l-140 -256zM88 78l140 255l-140 256v-511zM110 38h280l-140 255z" />
    <glyph glyph-name="NULL" horiz-adv-x="0" 
 />
    <glyph glyph-name="NULL" horiz-adv-x="0" 
 />
    <glyph glyph-name="CR" unicode="&#xd;" horiz-adv-x="250" 
 />
    <glyph glyph-name="space" unicode=" " horiz-adv-x="250" 
 />
    <glyph glyph-name="exclam" unicode="!" horiz-adv-x="267" 
d="M103 171l44 496h110l-112 -496h-42zM42 0l16 95h101l-16 -95h-101z" />
    <glyph glyph-name="quotedbl" unicode="&#x22;" horiz-adv-x="309" 
d="M225 412l28 255h75l-57 -255h-46zM94 412l28 255h75l-57 -255h-46z" />
    <glyph glyph-name="numbersign" unicode="#" 
d="M102 0l47 212h-107l13 60h107l31 139h-107l13 60h107l43 196h64l-43 -196h140l43 196h64l-44 -196h104l-13 -60h-103l-30 -139h102l-13 -60h-103l-47 -212h-63l47 212h-142l-47 -212h-63zM226 272h140l31 139h-141z" />
    <glyph glyph-name="dollar" unicode="$" 
d="M36 162l66 34c25 -63 72 -107 125 -118l39 236c-45 12 -66 20 -93 36c-45 27 -71 73 -71 126c0 64 36 123 94 156c35 20 73 28 128 29l15 88h59l-15 -92c74 -11 135 -55 165 -121l-67 -33c-22 49 -59 81 -108 92l-37 -219c46 -12 67 -20 95 -34c58 -30 89 -79 89 -142
c0 -69 -39 -131 -103 -165c-39 -21 -82 -30 -143 -31l-17 -97h-59l18 105c-85 17 -146 68 -180 150zM279 389l35 213c-84 -3 -138 -46 -138 -112c0 -52 32 -84 103 -101zM285 70c6 -1 11 -1 14 -1c82 0 144 53 144 122c0 57 -33 87 -120 109z" />
    <glyph glyph-name="percent" unicode="%" horiz-adv-x="773" 
d="M214 332c-79 0 -138 65 -138 153c0 109 74 195 168 195c82 0 140 -65 140 -157c0 -102 -79 -191 -170 -191zM108 0l521 667h62l-519 -667h-64zM220 381c25 0 49 12 64 31c24 30 39 78 39 121c0 61 -30 98 -82 98c-29 0 -55 -14 -71 -38c-20 -30 -33 -78 -33 -117
c0 -56 34 -95 83 -95zM416 147c0 101 79 192 167 192c84 0 142 -65 142 -161c0 -101 -76 -189 -163 -189c-86 0 -146 66 -146 158zM479 137c0 -61 31 -99 80 -99c62 0 104 62 104 154c0 39 -7 61 -26 77c-16 14 -35 21 -55 21c-59 0 -103 -65 -103 -153z" />
    <glyph glyph-name="ampersand" unicode="&#x26;" horiz-adv-x="667" 
d="M596 53l-9 -62c-30 -7 -45 -9 -62 -9c-25 0 -52 8 -69 21c-11 9 -16 15 -38 41c-78 -50 -113 -63 -173 -63c-120 0 -214 87 -214 197c0 76 42 141 117 179c25 12 55 25 96 39c-34 64 -48 108 -48 149c0 80 69 141 159 141c91 0 157 -59 157 -141c0 -56 -30 -104 -83 -136
c-27 -16 -50 -27 -94 -46l106 -217c55 55 108 138 139 217l59 -23c-36 -91 -100 -187 -167 -251c20 -32 37 -44 64 -44c13 0 24 1 60 8zM315 414l19 9c76 33 110 72 110 123c0 47 -37 82 -88 82c-52 0 -89 -37 -89 -90c0 -25 16 -68 48 -124zM386 99l-118 246
c-109 -42 -154 -89 -154 -165c0 -77 61 -137 140 -137c44 0 84 17 132 56z" />
    <glyph glyph-name="quoteright" unicode="&#x2019;" horiz-adv-x="250" 
d="M91 445l84 128h-43l15 94h97l-16 -94l-98 -128h-39z" />
    <glyph glyph-name="parenleft" unicode="(" horiz-adv-x="293" 
d="M176 -167h-46c-61 93 -91 199 -91 323c0 183 78 357 230 511h56c-141 -158 -219 -349 -219 -539c0 -108 21 -197 70 -295z" />
    <glyph glyph-name="parenright" unicode=")" horiz-adv-x="293" 
d="M25 -167h-56c142 158 219 348 219 539c0 108 -21 197 -70 295h46c61 -93 91 -199 91 -323c0 -183 -79 -359 -230 -511z" />
    <glyph glyph-name="asterisk" unicode="*" 
d="M204 279l-41 34l126 135l-155 50l27 55l152 -57l25 171h57l-32 -170l171 56l8 -55l-171 -49l80 -136l-52 -34l-74 140z" />
    <glyph glyph-name="plus" unicode="+" 
d="M271 95v205h-197v68h197v205h73v-205h197v-68h-197v-205h-73z" />
    <glyph glyph-name="comma" unicode="," horiz-adv-x="250" 
d="M29 0l18 112h110l-18 -112l-112 -149h-39l91 149h-50z" />
    <glyph glyph-name="hyphen" unicode="-" horiz-adv-x="250" 
d="M10 220l9 57h222l-9 -57h-222z" />
    <glyph glyph-name="period" unicode="." horiz-adv-x="250" 
d="M29 0l19 112h110l-19 -112h-110z" />
    <glyph glyph-name="slash" unicode="/" horiz-adv-x="469" 
d="M-57 -167h-64l562 834h65z" />
    <glyph glyph-name="zero" unicode="0" 
d="M273 -21c-135 0 -222 115 -222 293c0 84 20 172 57 244c57 113 137 172 234 172c135 0 224 -116 224 -292c0 -79 -19 -166 -51 -232c-30 -62 -72 -114 -116 -146c-39 -27 -77 -39 -126 -39zM277 40c58 0 107 34 140 98c40 76 64 179 64 275c0 75 -11 124 -36 160
c-23 32 -65 53 -107 53c-67 0 -120 -45 -156 -133c-31 -74 -49 -164 -49 -242c0 -136 51 -211 144 -211z" />
    <glyph glyph-name="one" unicode="1" 
d="M52 0l11 65h194l87 512c-27 -43 -117 -81 -198 -82l11 66c112 17 181 54 226 122h57l-104 -618h204l-11 -65h-477z" />
    <glyph glyph-name="two" unicode="2" 
d="M16 0l14 82c102 63 209 134 281 187c123 91 163 144 163 216c0 76 -64 135 -146 135c-53 0 -103 -25 -131 -65c-16 -22 -24 -40 -44 -89l-67 25c45 130 126 196 242 196c129 0 229 -91 229 -207c0 -101 -54 -168 -223 -278c-62 -41 -140 -88 -217 -131h385l-12 -71h-474z
" />
    <glyph glyph-name="three" unicode="3" 
d="M25 150l66 26c15 -34 25 -50 41 -68c34 -37 85 -59 139 -59c93 0 163 61 163 141c0 67 -42 111 -114 122c-21 3 -39 4 -114 4l11 66c41 -1 41 -1 65 -1c50 0 79 4 108 15c44 16 76 62 76 110c0 66 -57 116 -133 116c-69 0 -119 -33 -157 -106l-62 33
c50 90 123 134 221 134c121 0 211 -76 211 -177c0 -83 -53 -139 -153 -160c33 -10 49 -18 69 -37c33 -30 53 -77 53 -123c0 -114 -105 -203 -240 -203c-120 0 -212 61 -250 167z" />
    <glyph glyph-name="four" unicode="4" 
d="M27 161l11 67l378 457h97l-77 -458h109l-11 -66h-109l-27 -161h-79l27 161h-319zM110 227h247l63 376z" />
    <glyph glyph-name="five" unicode="5" 
d="M37 140l64 29c19 -34 30 -49 46 -65c33 -33 79 -51 127 -51c101 0 177 77 177 179c0 90 -64 156 -152 156c-59 0 -107 -30 -145 -91l-70 21l79 349h392l-23 -71h-317l-49 -219c44 54 85 74 147 74c122 0 217 -95 217 -217c0 -67 -29 -134 -78 -180
c-45 -43 -106 -66 -178 -66c-109 0 -195 55 -237 152z" />
    <glyph glyph-name="six" unicode="6" 
d="M582 533l-73 -19c-30 70 -76 104 -142 104c-70 0 -128 -42 -170 -122c-24 -47 -40 -96 -56 -176c47 82 108 121 192 121c121 0 214 -94 214 -215c0 -136 -106 -241 -242 -241c-148 0 -246 111 -246 279c0 75 18 159 51 231c55 122 146 189 255 189
c107 0 182 -52 217 -151zM150 205c0 -86 66 -153 152 -153c90 0 166 77 166 169c0 87 -63 153 -146 153c-95 0 -172 -76 -172 -169z" />
    <glyph glyph-name="seven" unicode="7" 
d="M163 -8c19 230 133 440 325 602h-377l22 73h456l-9 -55c-221 -213 -305 -371 -328 -620h-89z" />
    <glyph glyph-name="eight" unicode="8" 
d="M36 167c0 90 51 143 173 179c-71 39 -103 85 -103 150c0 109 93 185 227 185c127 0 215 -65 215 -159c0 -78 -52 -135 -147 -165c33 -16 46 -23 64 -36c42 -30 68 -81 68 -132c0 -118 -106 -202 -253 -202c-145 0 -244 73 -244 180zM320 385c110 37 152 72 152 127
c0 65 -57 108 -142 108c-87 0 -145 -45 -145 -112c0 -53 42 -91 135 -123zM115 171c0 -75 64 -121 167 -121c101 0 170 51 170 125c0 41 -22 74 -66 99c-18 10 -27 14 -94 41c-45 -11 -80 -25 -116 -47c-42 -25 -61 -55 -61 -97z" />
    <glyph glyph-name="nine" unicode="9" 
d="M35 114l66 31c30 -64 81 -98 146 -98c81 0 145 52 184 148c17 43 28 85 40 155c-44 -80 -106 -119 -189 -119c-117 0 -209 94 -209 215c0 134 106 237 244 237c145 0 236 -107 236 -278c0 -93 -24 -188 -66 -262c-59 -105 -141 -158 -245 -158c-97 0 -170 45 -207 129z
M296 297c91 0 170 78 170 168c0 88 -63 155 -147 155c-94 0 -168 -75 -168 -169c0 -86 64 -154 145 -154z" />
    <glyph glyph-name="colon" unicode=":" horiz-adv-x="250" 
d="M91 373l19 112h110l-19 -112h-110zM29 0l19 112h110l-19 -112h-110z" />
    <glyph glyph-name="semicolon" unicode=";" horiz-adv-x="250" 
d="M91 373l19 112h110l-19 -112h-110zM29 0l18 112h110l-18 -112l-113 -149h-38l91 149h-50z" />
    <glyph glyph-name="less" unicode="&#x3c;" 
d="M92 298v65l433 203v-74l-353 -162l353 -161v-75z" />
    <glyph glyph-name="equal" unicode="=" 
d="M76 387v67h467v-67h-467zM76 229v67h467v-67h-467z" />
    <glyph glyph-name="greater" unicode="&#x3e;" 
d="M92 94v75l353 161l-353 162v74l433 -203v-65z" />
    <glyph glyph-name="question" unicode="?" horiz-adv-x="498" 
d="M173 171c14 139 24 151 160 212c56 25 88 70 88 123c0 66 -54 114 -128 114c-49 0 -94 -23 -122 -61c-15 -21 -23 -36 -38 -73l-68 28c48 117 121 172 229 172c120 0 208 -77 208 -182c0 -49 -21 -100 -55 -132c-25 -23 -60 -43 -127 -69c-60 -24 -69 -40 -78 -132h-69z
M130 0l16 96h100l-16 -96h-100z" />
    <glyph glyph-name="at" unicode="@" horiz-adv-x="747" 
d="M618 99l23 -53c-83 -42 -150 -59 -235 -59c-75 0 -142 17 -196 49c-99 59 -159 171 -159 294c0 200 148 351 346 351c95 0 187 -37 246 -99c48 -50 74 -118 74 -196c0 -131 -78 -245 -168 -245c-44 0 -73 20 -87 62c-36 -47 -65 -64 -108 -64c-85 0 -148 75 -148 176
c0 113 76 201 173 201c50 0 77 -15 109 -60l9 52h61l-37 -227c-3 -19 -5 -36 -5 -49c0 -20 12 -31 33 -31c56 0 109 87 109 178c0 141 -115 245 -269 245c-157 0 -277 -126 -277 -291c0 -105 50 -198 134 -248c43 -26 99 -40 161 -40c77 0 132 14 211 54zM362 201
c57 0 108 70 108 148c0 61 -36 105 -88 105c-58 0 -104 -61 -104 -139c0 -66 35 -114 84 -114z" />
    <glyph glyph-name="A" unicode="A" horiz-adv-x="564" 
d="M-28 0l326 667h93l116 -667h-86l-34 195h-243l-96 -195h-76zM175 262h202l-52 307z" />
    <glyph glyph-name="B" unicode="B" horiz-adv-x="611" 
d="M42 0l112 667h208c90 0 119 -6 157 -30c41 -27 65 -74 65 -128c0 -49 -21 -95 -57 -124c-20 -15 -37 -24 -73 -36c68 -24 105 -78 105 -154c0 -63 -27 -120 -74 -156c-43 -32 -77 -39 -182 -39h-261zM187 379h126c85 0 118 7 149 32c25 21 42 58 42 95
c0 45 -23 79 -62 91c-15 5 -43 7 -80 7h-10l-128 -1zM134 66h145c98 0 126 5 156 30c27 22 44 65 44 109c0 39 -14 70 -41 88c-28 20 -46 23 -127 23h-135z" />
    <glyph glyph-name="C" unicode="C" horiz-adv-x="576" 
d="M478 213l67 -26c-49 -130 -134 -198 -249 -198c-49 0 -96 13 -130 36c-71 47 -113 142 -113 253c0 86 25 178 67 252c58 100 142 154 240 154c75 0 143 -33 184 -89c24 -33 36 -68 45 -133l-73 -18c-6 48 -14 76 -28 102c-25 45 -73 71 -128 71c-61 0 -116 -33 -150 -90
c-43 -71 -71 -176 -71 -262c0 -129 61 -209 159 -209c49 0 95 24 131 69c16 20 29 45 49 88z" />
    <glyph glyph-name="D" unicode="D" horiz-adv-x="648" 
d="M42 0l112 667h184c105 0 161 -22 214 -83c46 -54 69 -124 69 -211c0 -114 -38 -215 -107 -288c-59 -62 -120 -85 -226 -85h-246zM135 68l134 -1h4c112 0 176 35 223 125c28 53 43 120 43 187c0 70 -17 126 -49 165c-35 42 -85 61 -162 60l-104 -1z" />
    <glyph glyph-name="E" unicode="E" horiz-adv-x="559" 
d="M42 0l112 667h415l-11 -66h-334l-37 -220h286l-11 -66h-286l-41 -244h361l-12 -71h-442z" />
    <glyph glyph-name="F" unicode="F" horiz-adv-x="507" 
d="M42 0l112 667h407l-11 -68h-326l-37 -220h281l-11 -66h-281l-53 -313h-81z" />
    <glyph glyph-name="G" unicode="G" horiz-adv-x="651" 
d="M494 -8l-10 81c-43 -62 -97 -90 -176 -90c-150 0 -253 122 -253 300c0 89 25 181 68 252c59 98 142 149 243 149c78 0 146 -30 191 -84c24 -29 39 -57 55 -106l-72 -25c-30 99 -89 150 -174 150c-78 0 -143 -49 -183 -137c-27 -60 -43 -137 -43 -207
c0 -139 68 -227 175 -227c68 0 125 38 159 107c14 28 23 57 32 113h-174l11 65h253l-57 -341h-45z" />
    <glyph glyph-name="H" unicode="H" horiz-adv-x="656" 
d="M42 0l112 667h81l-47 -281h327l47 281h81l-112 -667h-81l53 315h-327l-53 -315h-81z" />
    <glyph glyph-name="I" unicode="I" horiz-adv-x="248" 
d="M42 0l112 667h81l-112 -667h-81z" />
    <glyph glyph-name="J" unicode="J" horiz-adv-x="369" 
d="M-41 0l11 68c28 -5 46 -7 74 -7c41 0 76 10 103 29c30 22 44 54 59 144l72 433h85l-69 -412c-22 -129 -38 -170 -83 -212c-36 -33 -93 -53 -152 -53c-32 0 -67 4 -100 10z" />
    <glyph glyph-name="K" unicode="K" horiz-adv-x="623" 
d="M42 0l112 667h81l-64 -380l367 380h93l-226 -233l158 -434h-85l-135 376l-189 -194l-31 -182h-81z" />
    <glyph glyph-name="L" unicode="L" horiz-adv-x="509" 
d="M42 0l112 667h81l-100 -596h331l-12 -71h-412z" />
    <glyph glyph-name="M" unicode="M" horiz-adv-x="815" 
d="M42 0l112 667h123l109 -547l285 547h131l-111 -667h-82l103 612l-320 -612h-62l-119 602l-101 -602h-68z" />
    <glyph glyph-name="N" unicode="N" horiz-adv-x="655" 
d="M42 0l112 667h91l242 -532l89 532h66l-112 -667h-65l-262 570l-95 -570h-66z" />
    <glyph glyph-name="O" unicode="O" horiz-adv-x="642" 
d="M55 286c0 82 23 170 63 239c58 101 145 155 247 155c154 0 253 -115 253 -293c0 -74 -19 -156 -50 -220c-58 -119 -146 -180 -260 -180c-152 0 -253 119 -253 299zM141 269c0 -132 65 -215 167 -215c92 0 163 67 200 189c13 44 25 122 25 166c0 123 -68 204 -171 204
c-86 0 -152 -58 -190 -167c-19 -54 -31 -121 -31 -177z" />
    <glyph glyph-name="P" unicode="P" horiz-adv-x="557" 
d="M42 0l112 667h182c82 0 120 -7 154 -28c49 -29 83 -93 83 -157c0 -59 -29 -122 -73 -161c-43 -37 -101 -52 -197 -52h-135l-45 -269h-81zM180 336h91c93 0 121 4 150 19c40 22 67 73 67 126c0 48 -23 92 -55 107c-22 10 -50 13 -98 13h-111z" />
    <glyph glyph-name="Q" unicode="Q" horiz-adv-x="639" 
d="M505 -91l-10 -61c-47 -8 -68 -10 -92 -10c-80 0 -124 39 -124 111c0 10 1 20 3 38c-67 9 -114 31 -153 73c-48 52 -75 130 -75 218c0 77 18 157 51 223c58 117 149 179 259 179c152 0 252 -116 252 -290c0 -89 -26 -185 -69 -258c-50 -83 -121 -133 -202 -142
c-2 -13 -3 -21 -3 -27c0 -41 25 -61 77 -61c13 0 18 3 69 6zM143 257c0 -125 64 -205 164 -205c68 0 125 36 164 104c33 56 57 160 57 241c0 137 -60 216 -164 216c-62 0 -117 -30 -150 -83c-44 -69 -71 -173 -71 -273z" />
    <glyph glyph-name="R" unicode="R" horiz-adv-x="633" 
d="M42 0l112 667h208c79 0 123 -8 159 -29c52 -31 82 -85 82 -148c0 -94 -61 -166 -155 -183l94 -307h-86l-87 292h-197l-49 -292h-81zM183 359h153c70 0 112 10 143 35c25 21 41 59 41 98c0 73 -48 110 -143 110h-153z" />
    <glyph glyph-name="S" unicode="S" horiz-adv-x="572" 
d="M544 528l-70 -27c-30 79 -90 121 -175 121c-84 0 -140 -47 -140 -117c0 -30 13 -57 36 -73c27 -19 27 -20 115 -42c82 -21 115 -32 141 -49c51 -33 78 -83 78 -146c0 -126 -100 -209 -254 -209c-74 0 -141 21 -190 59c-36 28 -60 64 -81 126l73 27c17 -48 30 -71 51 -92
c35 -34 88 -53 149 -53c99 0 169 55 169 133c0 41 -20 74 -57 92c-21 11 -27 13 -101 30c-63 15 -106 31 -139 53c-46 29 -72 79 -72 136c0 111 90 188 220 188c121 0 205 -53 247 -157z" />
    <glyph glyph-name="T" unicode="T" horiz-adv-x="488" 
d="M162 0l100 599h-193l11 68h468l-11 -68h-193l-101 -599h-81z" />
    <glyph glyph-name="U" unicode="U" horiz-adv-x="615" 
d="M611 667l-67 -406c-20 -121 -43 -175 -88 -217c-41 -38 -102 -59 -171 -59c-137 0 -220 70 -220 187c0 24 1 31 17 126l61 369h82l-65 -387c-13 -78 -14 -78 -14 -103c0 -76 56 -125 143 -125c51 0 98 17 127 47c31 31 44 66 59 154l69 414h67z" />
    <glyph glyph-name="V" unicode="V" horiz-adv-x="529" 
d="M197 0l-132 667h89l104 -539l260 539h77l-325 -667h-73z" />
    <glyph glyph-name="W" unicode="W" horiz-adv-x="812" 
d="M146 0l-65 667h82l53 -551l225 551h62l69 -551l222 551h69l-270 -667h-82l-64 532l-214 -532h-87z" />
    <glyph glyph-name="X" unicode="X" horiz-adv-x="538" 
d="M-39 0l274 342l-156 325h91l121 -258l204 258h86l-256 -318l169 -349h-94l-132 281l-222 -281h-85z" />
    <glyph glyph-name="Y" unicode="Y" horiz-adv-x="512" 
d="M175 0l47 279l-170 388h90l138 -316l230 316h82l-286 -388l-47 -279h-84z" />
    <glyph glyph-name="Z" unicode="Z" horiz-adv-x="525" 
d="M-18 0l12 71l433 529h-334l11 67h444l-10 -55l-442 -541h376l-11 -71h-479z" />
    <glyph glyph-name="bracketleft" unicode="[" horiz-adv-x="293" 
d="M80 -122h112l-8 -45h-181l139 834h182l-8 -45h-112z" />
    <glyph glyph-name="backslash" unicode="\" horiz-adv-x="469" 
d="M397 -167l-284 834h56l283 -834h-55z" />
    <glyph glyph-name="bracketright" unicode="]" horiz-adv-x="293" 
d="M-21 -122h112l124 744h-112l7 45h182l-140 -834h-181z" />
    <glyph glyph-name="asciicircum" unicode="^" horiz-adv-x="500" 
d="M40 364l176 305h99l176 -305h-81l-145 246l-144 -246h-81z" />
    <glyph glyph-name="underscore" unicode="_" horiz-adv-x="500" 
d="M15 -66h500v-67h-500v67z" />
    <glyph glyph-name="quoteleft" unicode="&#x2018;" horiz-adv-x="250" 
d="M110 445l16 94l98 128h39l-84 -128h43l-15 -94h-97z" />
    <glyph glyph-name="a" unicode="a" horiz-adv-x="535" 
d="M428 0h-77c-1 12 -1 18 -1 25c0 27 2 44 9 72c-52 -76 -112 -111 -185 -111c-91 0 -158 62 -158 148c0 71 47 128 128 155c38 13 94 19 173 19c18 0 18 2 63 -2l11 -1c4 28 5 38 5 53c0 60 -40 93 -114 93c-67 0 -109 -25 -142 -84l-73 31c38 73 112 113 209 113
c117 0 199 -56 199 -135c0 -22 -3 -36 -38 -263c-7 -43 -10 -75 -10 -93c0 -2 0 -9 1 -20zM100 131c0 -50 34 -82 88 -82c57 0 112 34 152 93c21 31 32 60 42 107c-40 2 -40 2 -67 2c-63 0 -111 -7 -143 -20c-47 -20 -72 -55 -72 -100z" />
    <glyph glyph-name="b" unicode="b" horiz-adv-x="538" 
d="M35 0l112 667h76l-42 -251c43 63 92 92 153 92c103 0 168 -82 168 -212c0 -56 -14 -117 -39 -168c-43 -91 -114 -141 -196 -141c-70 0 -116 31 -154 101l-45 -88h-33zM146 190c0 -85 49 -144 119 -144c53 0 96 35 124 101c21 49 33 105 33 155c0 93 -37 145 -103 145
c-45 0 -82 -23 -115 -72c-36 -54 -58 -122 -58 -185z" />
    <glyph glyph-name="c" unicode="c" horiz-adv-x="474" 
d="M367 170l62 -23c-35 -104 -110 -163 -206 -163c-114 0 -187 88 -187 225c0 66 16 129 48 183c45 77 111 119 190 119c100 0 175 -69 185 -174l-74 -16c-11 78 -53 123 -115 123c-48 0 -90 -29 -114 -79c-23 -48 -38 -113 -38 -170c0 -89 43 -144 113 -144
c59 0 101 36 136 119z" />
    <glyph glyph-name="d" unicode="d" horiz-adv-x="538" 
d="M351 0l18 98c-53 -82 -97 -111 -171 -111c-99 0 -163 82 -163 209c0 59 16 125 45 179c46 87 111 132 191 132c67 0 115 -31 144 -93l42 253h75l-112 -667h-69zM115 184c0 -84 40 -136 104 -136c94 0 175 120 175 258c0 43 -7 68 -26 93c-24 31 -56 48 -93 48
c-49 0 -93 -32 -120 -86c-24 -50 -40 -119 -40 -177z" />
    <glyph glyph-name="e" unicode="e" horiz-adv-x="520" 
d="M394 146l64 -30c-56 -91 -121 -130 -214 -130c-128 0 -211 90 -211 227c0 170 110 298 255 298c123 0 197 -81 197 -213c0 -19 -1 -32 -5 -57h-364c-2 -18 -3 -27 -3 -39c0 -92 52 -152 132 -152c64 0 99 23 149 96zM125 297h282l1 24c3 79 -49 131 -124 131
c-78 0 -140 -60 -159 -155z" />
    <glyph glyph-name="f" unicode="f" horiz-adv-x="300" 
d="M50 0l73 435h-92l10 60h92c21 131 81 187 202 187c14 0 25 -1 45 -3l-10 -61c-17 2 -25 3 -36 3c-77 0 -114 -38 -125 -126h120l-10 -60h-120l-73 -435h-76z" />
    <glyph glyph-name="g" unicode="g" horiz-adv-x="503" 
d="M528 591l-11 -64c-29 1 -30 1 -41 1c-45 0 -72 -20 -84 -63c45 -36 65 -73 65 -122c0 -103 -83 -180 -196 -180c-34 0 -60 6 -95 21c-43 -20 -64 -42 -64 -67c0 -12 7 -22 22 -27s21 -6 113 -7c97 -2 137 -7 166 -26c35 -22 53 -54 53 -95c0 -100 -81 -152 -237 -152
c-162 0 -243 40 -243 119c0 47 33 86 91 107c-29 18 -39 34 -39 64c0 48 31 80 103 109c-38 30 -55 66 -55 115c0 102 83 175 199 175c25 0 38 -2 77 -13c28 81 63 109 134 109c14 0 23 -1 42 -4zM258 218c71 0 122 48 122 116c0 65 -43 108 -109 108
c-70 0 -119 -48 -119 -118c0 -64 42 -106 106 -106zM51 -54c0 -50 68 -79 185 -79c95 0 147 28 147 80c0 43 -32 57 -135 58c-63 0 -90 2 -134 10c-41 -13 -63 -37 -63 -69z" />
    <glyph glyph-name="h" unicode="h" horiz-adv-x="545" 
d="M35 0l112 667h76l-45 -264c51 75 99 106 166 106c83 0 141 -55 141 -134c0 -14 -3 -44 -8 -71l-51 -304h-75l51 304c4 23 6 46 6 61c0 51 -33 84 -82 84c-51 0 -99 -37 -136 -103c-21 -38 -35 -81 -45 -143l-34 -203h-76z" />
    <glyph glyph-name="i" unicode="i" horiz-adv-x="230" 
d="M122 576l16 91h99l-15 -91h-100zM36 0l83 495h77l-83 -495h-77z" />
    <glyph glyph-name="j" unicode="j" horiz-adv-x="229" 
d="M121 576l15 91h100l-16 -91h-99zM40 31l78 464h76l-78 -464c-16 -96 -23 -118 -46 -148c-28 -35 -72 -55 -124 -55c-18 0 -37 2 -67 6l10 59c27 -3 40 -4 52 -4c43 0 70 19 82 56c3 10 9 39 17 86z" />
    <glyph glyph-name="k" unicode="k" horiz-adv-x="490" 
d="M35 0l112 667h76l-71 -421l264 249h89l-190 -177l123 -318h-81l-104 267l-117 -116l-25 -151h-76z" />
    <glyph glyph-name="l" unicode="l" horiz-adv-x="229" 
d="M35 0l112 667h76l-112 -667h-76z" />
    <glyph glyph-name="m" unicode="m" horiz-adv-x="817" 
d="M35 0l83 495h72l-13 -82c54 70 92 94 149 94c67 0 111 -36 130 -107c47 73 99 108 162 108c80 0 138 -56 138 -132c0 -20 -2 -45 -7 -72l-51 -304h-76l48 286c5 32 8 55 8 73c0 52 -32 86 -82 86c-35 0 -66 -20 -97 -61c-29 -39 -45 -85 -58 -162l-37 -222h-77l47 284
c6 36 10 65 10 78c0 51 -31 85 -79 85c-40 0 -77 -28 -107 -79c-27 -46 -29 -57 -53 -190l-32 -178h-78z" />
    <glyph glyph-name="n" unicode="n" horiz-adv-x="548" 
d="M35 0l83 495h66l-19 -110c46 84 102 124 175 124c83 0 146 -60 146 -139c0 -21 -4 -51 -9 -84l-47 -286h-73l48 285c5 29 8 58 8 70c0 56 -36 93 -92 93c-49 0 -93 -29 -127 -83c-25 -41 -42 -93 -58 -188l-30 -177h-71z" />
    <glyph glyph-name="o" unicode="o" horiz-adv-x="521" 
d="M37 214c0 162 111 293 249 293c120 0 198 -88 198 -225c0 -166 -110 -297 -248 -297c-120 0 -199 91 -199 229zM119 195c0 -94 45 -149 121 -149c47 0 87 23 113 65c31 50 50 120 50 187c0 47 -7 78 -25 102c-21 29 -57 47 -96 47c-47 0 -88 -24 -115 -67
c-30 -50 -48 -119 -48 -185z" />
    <glyph glyph-name="p" unicode="p" horiz-adv-x="536" 
d="M123 73l-40 -240h-76l110 660h71l-16 -101c49 76 102 112 166 112c96 0 162 -85 162 -209c0 -168 -104 -308 -230 -308c-63 0 -108 26 -147 86zM144 186c0 -83 45 -137 114 -137c50 0 90 25 114 70c27 49 45 122 45 183c0 40 -6 66 -19 89c-18 31 -52 50 -87 50
c-85 0 -167 -125 -167 -255z" />
    <glyph glyph-name="q" unicode="q" horiz-adv-x="533" 
d="M311 -167l43 260c-43 -73 -93 -108 -156 -108c-98 0 -164 83 -164 206c0 169 108 313 236 313c66 0 110 -27 149 -93l44 84h34l-110 -662h-76zM115 182c0 -80 42 -135 103 -135c44 0 88 31 119 85c30 52 52 124 52 172c0 85 -46 141 -115 141c-45 0 -84 -25 -110 -69
c-31 -53 -49 -126 -49 -194z" />
    <glyph glyph-name="r" unicode="r" horiz-adv-x="339" 
d="M35 0l83 495h76l-24 -130c57 106 106 144 185 144h17l-13 -78h-21c-69 0 -120 -41 -158 -125c-21 -45 -33 -94 -50 -195l-19 -111h-76z" />
    <glyph glyph-name="s" unicode="s" horiz-adv-x="461" 
d="M-4 122l71 24c24 -66 73 -98 149 -98c69 0 115 34 115 85c0 22 -11 43 -27 54c-13 8 -35 16 -70 24l-26 6c-60 14 -85 24 -111 43c-30 22 -48 58 -48 96c0 88 74 149 179 149c95 0 162 -41 191 -116l-64 -27c-21 55 -66 83 -129 83c-58 0 -99 -32 -99 -77
c0 -25 13 -46 37 -56c16 -7 30 -11 66 -19l30 -7c55 -13 77 -21 100 -39c30 -24 47 -60 47 -101c0 -94 -80 -159 -194 -159c-109 0 -180 44 -217 135z" />
    <glyph glyph-name="t" unicode="t" horiz-adv-x="307" 
d="M242 -6l-26 -3c-11 -1 -22 -2 -32 -2c-84 0 -124 35 -124 109c0 23 3 48 12 103l39 234h-75l10 60h77l20 120l75 6l-21 -126h112l-10 -60h-112l-45 -268c-4 -25 -7 -48 -7 -61c0 -35 23 -55 62 -55c14 0 32 0 52 3l15 2l-8 -61z" />
    <glyph glyph-name="u" unicode="u" horiz-adv-x="543" 
d="M357 0l20 120c-49 -93 -103 -133 -179 -133c-82 0 -137 56 -137 139c0 22 3 49 10 92l48 277h76l-50 -301c-7 -42 -9 -53 -9 -64c0 -48 32 -80 81 -80s90 28 129 89c31 48 45 89 58 166l32 190h71l-83 -495h-67z" />
    <glyph glyph-name="v" unicode="v" horiz-adv-x="444" 
d="M148 0l-101 495h82l75 -388l195 388h68l-248 -495h-71z" />
    <glyph glyph-name="w" unicode="w" horiz-adv-x="674" 
d="M130 0l-76 495h75l55 -372l156 372h63l59 -372l163 372h65l-221 -495h-57l-62 377l-158 -377h-62z" />
    <glyph glyph-name="x" unicode="x" horiz-adv-x="436" 
d="M-31 0l205 257l-124 238h87l90 -177l137 177h74l-181 -230l139 -265h-86l-103 204l-161 -204h-77z" />
    <glyph glyph-name="y" unicode="y" horiz-adv-x="425" 
d="M-48 -171l11 67c20 -4 30 -5 43 -5c53 0 92 27 121 88l16 34l-103 482h78l80 -376l195 376h66l-271 -522c-31 -59 -46 -81 -72 -105c-31 -28 -69 -42 -115 -42c-15 0 -26 1 -49 3z" />
    <glyph glyph-name="z" unicode="z" horiz-adv-x="419" 
d="M-18 0l9 52l326 380h-253l10 63h356l-9 -51l-330 -382h277l-10 -62h-376z" />
    <glyph glyph-name="braceleft" unicode="{" horiz-adv-x="293" 
d="M69 -24l27 160c2 10 3 25 3 33c0 32 -13 49 -45 58l8 48c44 12 63 34 72 88l29 173c15 92 63 131 159 131h21l-8 -52c-72 -1 -96 -21 -107 -87l-28 -169c-11 -65 -31 -89 -80 -110c33 -18 46 -38 46 -75c0 -11 -1 -25 -3 -37l-27 -162c-3 -17 -5 -33 -5 -41
c0 -22 11 -36 32 -43c14 -5 22 -6 49 -6l-8 -52h-21c-83 0 -119 28 -119 93c0 15 1 25 5 50z" />
    <glyph glyph-name="bar" unicode="|" horiz-adv-x="500" 
d="M228 -167v834h75v-834h-75z" />
    <glyph glyph-name="braceright" unicode="}" horiz-adv-x="293" 
d="M66 -28l28 169c11 64 31 90 80 110c-33 18 -46 38 -46 75c0 11 1 23 3 37l28 162c2 14 4 33 4 41c0 21 -11 36 -32 43c-14 5 -22 6 -49 6l8 52h21c83 0 119 -28 119 -93c0 -14 -1 -28 -5 -50l-27 -160c-2 -12 -3 -24 -3 -32c0 -33 13 -50 45 -59l-8 -48
c-44 -12 -63 -35 -72 -88l-29 -173c-15 -92 -63 -131 -159 -131h-21l9 52c71 1 95 21 106 87z" />
    <glyph glyph-name="asciitilde" unicode="~" 
d="M107 256c-8 0 -24 12 -39 30c39 83 78 116 137 116c28 0 64 -11 112 -34c47 -22 74 -31 97 -31c34 0 72 25 84 56c4 9 6 12 11 12c8 0 24 -11 40 -28c-21 -40 -36 -61 -56 -80s-55 -33 -82 -33c-31 0 -60 9 -124 40c-34 16 -67 26 -89 26c-30 0 -68 -29 -80 -62
c-3 -9 -6 -12 -11 -12z" />
    <glyph glyph-name="exclamdown" unicode="&#xa1;" horiz-adv-x="267" 
d="M110 405l16 95h100l-16 -95h-100zM11 -167l113 496h42l-45 -496h-110z" />
    <glyph glyph-name="cent" unicode="&#xa2;" 
d="M226 -50l27 162c-81 20 -128 89 -128 188c0 135 87 242 200 243l22 130h51l-23 -136c63 -14 102 -57 122 -131l-56 -18c-19 58 -43 88 -75 95l-54 -322c41 1 80 36 106 93l51 -23c-35 -83 -91 -125 -166 -125l-26 -156h-51zM262 168l53 318c-70 -8 -118 -88 -118 -196
c0 -64 23 -107 65 -122z" />
    <glyph glyph-name="sterling" unicode="&#xa3;" 
d="M-29 0l12 71c110 -2 151 20 196 94c10 17 20 77 21 152h-106l9 56h98c2 102 7 134 33 184c36 70 105 115 177 115c64 0 105 -24 145 -85l-60 -41c-22 43 -48 61 -87 61c-41 0 -79 -23 -101 -61c-10 -18 -17 -46 -19 -78c-1 -7 -1 -7 -2 -77c0 -2 0 -8 -1 -18h141l-9 -56
h-133c-3 -126 -35 -195 -115 -246h82h58c81 0 101 3 130 19c20 11 33 26 55 57l55 -41c-28 -42 -45 -60 -73 -77c-39 -24 -66 -29 -166 -29h-340z" />
    <glyph glyph-name="fraction" unicode="&#x2044;" horiz-adv-x="146" 
d="M-138 0h-63l514 667h63z" />
    <glyph glyph-name="yen" unicode="&#xa5;" horiz-adv-x="586" 
d="M214 0l37 217h-189l8 50h189l2 12l-34 84h-140l8 50h112l-103 254h85l127 -316l219 316h77l-178 -254h122l-8 -50h-150l-59 -84l-2 -12h195l-9 -50h-194l-37 -217h-78z" />
    <glyph glyph-name="florin" unicode="&#x192;" 
d="M-12 -68c10 -1 15 -1 21 -1c53 0 89 13 114 41c18 21 25 34 52 112l140 404h-92l21 64h92l11 28c41 105 112 155 217 155c5 0 18 -1 33 -2l-23 -66c-6 1 -12 1 -14 1c-65 0 -106 -32 -133 -97l-8 -19h116l-24 -64h-117l-150 -440c-47 -138 -107 -185 -235 -185
c-12 0 -26 1 -44 2z" />
    <glyph glyph-name="section" unicode="&#xa7;" 
d="M17 -35l85 13c31 -59 84 -90 158 -90c80 0 137 43 137 104c0 35 -14 55 -55 76c-29 15 -35 17 -137 50c-81 26 -118 68 -118 134c0 62 35 106 117 150c-42 31 -59 65 -59 113c0 98 78 165 192 165c60 0 117 -17 153 -46c27 -21 40 -40 55 -83l-78 -9
c-20 51 -63 78 -125 78c-71 0 -117 -35 -117 -90c0 -49 19 -64 152 -113c58 -22 81 -36 100 -59c20 -23 31 -55 31 -85c0 -54 -25 -88 -104 -140c36 -22 40 -25 52 -43c17 -28 25 -53 25 -84c0 -110 -91 -186 -224 -186c-115 0 -207 55 -240 145zM280 179l62 -22
c60 26 88 57 88 97c0 26 -12 48 -34 64c-19 14 -31 19 -96 41c-17 6 -23 8 -37 14c-64 -31 -94 -63 -94 -101c0 -42 24 -62 111 -93z" />
    <glyph glyph-name="currency" unicode="&#xa4;" horiz-adv-x="667" 
d="M114 80l-44 45l95 95c-36 51 -50 91 -50 143c0 50 12 86 49 140l-96 96l45 45l96 -96c59 40 92 51 144 51s84 -11 142 -50l96 95l45 -45l-96 -95c39 -60 50 -91 50 -142s-11 -83 -49 -141l96 -96l-44 -45l-96 96c-54 -37 -91 -50 -143 -50c-50 0 -84 12 -144 49zM352 193
c93 0 169 76 169 169s-76 170 -166 170c-96 0 -171 -75 -171 -170c0 -93 76 -169 168 -169z" />
    <glyph glyph-name="quotesingle" unicode="'" horiz-adv-x="178" 
d="M94 412l28 255h75l-57 -255h-46z" />
    <glyph glyph-name="quotedblleft" unicode="&#x201c;" horiz-adv-x="373" 
d="M243 454l15 91l95 122h37l-80 -122h44l-16 -91h-95zM105 454l15 91l97 122h37l-79 -122h43l-16 -91h-97z" />
    <glyph glyph-name="guillemotleft" unicode="&#xab;" horiz-adv-x="337" 
d="M230 105l-65 137l99 141h47l-73 -141l29 -137h-37zM108 105l-69 137l99 141h43l-70 -141l33 -137h-36z" />
    <glyph glyph-name="guilsinglleft" unicode="&#x2039;" horiz-adv-x="212" 
d="M105 105l-66 137l100 141h47l-73 -141l28 -137h-36z" />
    <glyph glyph-name="guilsinglright" unicode="&#x203a;" horiz-adv-x="212" 
d="M25 105l73 141l-28 137h36l66 -137l-100 -141h-47z" />
    <glyph glyph-name="fi" unicode="&#xe103;" horiz-adv-x="485" 
d="M51 0l73 435h-93l10 60h93c31 144 75 189 182 189c19 0 33 -1 51 -4l-15 -60c-15 2 -22 2 -31 2c-48 0 -80 -21 -94 -60c-5 -15 -9 -32 -16 -67h120l-10 -60h-120l-73 -435h-77zM378 579l15 88h99l-14 -88h-100zM291 0l83 495h76l-83 -495h-76z" />
    <glyph glyph-name="fl" unicode="&#xe104;" horiz-adv-x="485" 
d="M51 0l73 435h-93l10 60h93c29 141 76 189 188 189c17 0 27 -1 45 -4l-15 -61c-13 3 -22 4 -33 4c-44 0 -72 -16 -87 -51c-9 -19 -12 -32 -21 -77h120l-10 -60h-120l-73 -435h-77zM291 0l111 667h77l-112 -667h-76z" />
    <glyph glyph-name="endash" unicode="&#x2013;" 
d="M91 220l9 57h396l-10 -57h-395z" />
    <glyph glyph-name="dagger" unicode="&#x2020;" 
d="M189 -167l96 573h-186l11 66h186l32 195h72l-33 -195h186l-11 -66h-186l-96 -573h-71z" />
    <glyph glyph-name="daggerdbl" unicode="&#x2021;" 
d="M36 34l11 66h186l51 306h-186l11 66h186l32 195h72l-33 -195h186l-11 -66h-186l-51 -306h186l-11 -66h-186l-34 -201h-71l34 201h-186z" />
    <glyph glyph-name="periodcentered" unicode="&#xb7;" horiz-adv-x="129" 
d="M0 191l19 112h110l-19 -112h-110z" />
    <glyph glyph-name="paragraph" unicode="&#xb6;" 
d="M249 -167l87 521h-53c-67 0 -105 6 -129 21c-35 21 -54 63 -54 116c0 59 23 110 64 140c38 28 78 36 173 36h263l-8 -47h-66l-132 -787h-49l132 787h-48l-132 -787h-48zM295 401h49l36 219h-34c-83 0 -112 -8 -137 -37c-17 -21 -28 -55 -28 -91c0 -65 32 -91 114 -91z
" />
    <glyph glyph-name="bullet" unicode="&#x2022;" horiz-adv-x="667" 
d="M213 338c0 78 62 139 140 139c75 0 137 -63 137 -139s-62 -138 -138 -138c-77 0 -139 62 -139 138z" />
    <glyph glyph-name="quotesinglbase" unicode="&#x201a;" horiz-adv-x="250" 
d="M36 0l15 94h97l-16 -94l-98 -128h-39l84 128h-43z" />
    <glyph glyph-name="quotedblbase" unicode="&#x201e;" horiz-adv-x="373" 
d="M165 0l15 91h97l-15 -91l-96 -121h-38l79 121h-42zM29 0l15 91h96l-15 -91l-96 -121h-37l80 121h-43z" />
    <glyph glyph-name="quotedblright" unicode="&#x201d;" horiz-adv-x="373" 
d="M224 454l79 122h-42l15 91h97l-15 -91l-96 -122h-38zM88 454l80 122h-43l15 91h96l-15 -91l-96 -122h-37z" />
    <glyph glyph-name="guillemotright" unicode="&#xbb;" horiz-adv-x="337" 
d="M156 105l69 141l-32 137h36l68 -137l-99 -141h-42zM25 105l73 141l-28 137h36l66 -137l-100 -141h-47z" />
    <glyph glyph-name="ellipsis" unicode="&#x2026;" horiz-adv-x="749" 
d="M528 0l19 112h110l-19 -112h-110zM279 0l19 112h109l-19 -112h-109zM29 0l19 112h110l-19 -112h-110z" />
    <glyph glyph-name="perthousand" unicode="&#x2030;" horiz-adv-x="1132" 
d="M214 332c-79 0 -138 65 -138 153c0 109 74 195 168 195c82 0 140 -65 140 -157c0 -102 -79 -191 -170 -191zM108 0l521 667h62l-519 -667h-64zM220 381c25 0 49 12 64 31c24 30 39 78 39 121c0 61 -30 98 -82 98c-29 0 -55 -14 -71 -38c-20 -30 -33 -78 -33 -117
c0 -56 34 -95 83 -95zM776 147c0 100 79 191 167 191c84 0 142 -65 142 -160c0 -101 -76 -189 -163 -189c-86 0 -146 65 -146 158zM416 147c0 100 79 191 167 191c84 0 142 -65 142 -160c0 -101 -76 -189 -163 -189c-86 0 -146 65 -146 158zM839 137c0 -61 31 -99 80 -99
c62 0 104 62 104 155c0 38 -7 60 -26 76c-16 14 -35 21 -55 21c-59 0 -103 -65 -103 -153zM479 137c0 -61 31 -99 80 -99c62 0 104 62 104 155c0 38 -7 60 -26 76c-16 14 -35 21 -55 21c-59 0 -103 -65 -103 -153z" />
    <glyph glyph-name="questiondown" unicode="&#xbf;" horiz-adv-x="497" 
d="M253 404l16 96h100l-16 -96h-100zM366 14l68 -28c-47 -117 -121 -172 -229 -172c-119 0 -207 77 -207 182c0 49 21 100 55 132c25 23 62 43 127 69c59 23 69 41 77 132h69c-14 -140 -23 -151 -159 -212c-56 -25 -87 -70 -87 -123c0 -66 54 -114 127 -114
c48 0 93 23 121 61c15 21 23 36 38 73z" />
    <glyph glyph-name="grave" unicode="`" horiz-adv-x="500" 
d="M377 570l-189 92l30 59l180 -112z" />
    <glyph glyph-name="acute" unicode="&#xb4;" horiz-adv-x="500" 
d="M265 570l-21 39l187 112l30 -59z" />
    <glyph glyph-name="circumflex" unicode="&#x2c6;" horiz-adv-x="500" 
d="M148 583l181 127l136 -127l-71 -10l-77 67l-99 -67z" />
    <glyph glyph-name="tilde" unicode="&#x2dc;" horiz-adv-x="500" 
d="M190 593l-41 29c29 41 65 62 108 62c23 0 23 0 85 -26c13 -6 28 -9 43 -9c22 0 36 6 58 25l37 -35c-38 -37 -61 -49 -98 -49c-24 0 -24 0 -84 27c-14 6 -29 9 -44 9c-27 0 -43 -9 -64 -33z" />
    <glyph glyph-name="macron" unicode="&#xaf;" horiz-adv-x="500" 
d="M161 604l9 53h300l-9 -53h-300z" />
    <glyph glyph-name="breve" unicode="&#x2d8;" horiz-adv-x="500" 
d="M416 702h56c-28 -86 -79 -125 -164 -125s-121 37 -124 125h54c3 -49 26 -70 77 -70c52 0 76 16 101 70z" />
    <glyph glyph-name="dotaccent" unicode="&#x2d9;" horiz-adv-x="500" 
d="M314 587c-28 0 -52 24 -52 53s24 52 53 52c28 0 52 -24 52 -52c0 -29 -24 -53 -53 -53z" />
    <glyph glyph-name="dieresis" unicode="&#xa8;" horiz-adv-x="500" 
d="M391 587c-27 0 -50 23 -50 51s23 50 51 50c27 0 50 -23 50 -50c0 -28 -23 -51 -51 -51zM236 587c-28 0 -50 23 -50 50c0 28 22 50 50 50c27 0 50 -23 50 -50s-23 -50 -50 -50z" />
    <glyph glyph-name="ring" unicode="&#x2da;" horiz-adv-x="500" 
d="M316 563c-46 0 -85 38 -85 85s39 85 86 85c46 0 83 -39 83 -86c0 -46 -37 -84 -84 -84zM316 603c24 0 44 20 44 45c0 24 -20 45 -43 45c-25 0 -46 -20 -46 -45c0 -24 21 -45 45 -45z" />
    <glyph glyph-name="cedilla" unicode="&#xb8;" horiz-adv-x="500" 
d="M163 -81l35 81h37l-20 -48c7 1 14 1 17 1c42 0 74 -26 74 -61c0 -46 -42 -77 -105 -77c-33 0 -56 6 -85 22l15 32c28 -13 45 -17 67 -17c34 0 56 15 56 38c0 22 -19 32 -58 32c-9 0 -17 -1 -33 -3z" />
    <glyph glyph-name="hungarumlaut" unicode="&#x2dd;" horiz-adv-x="500" 
d="M400 570l-25 38l148 113l33 -51zM247 570l-25 38l148 113l33 -51z" />
    <glyph glyph-name="ogonek" unicode="&#x2db;" horiz-adv-x="500" 
d="M406 -111l6 -33c-25 -11 -47 -16 -74 -16c-54 0 -85 23 -85 63c0 43 28 74 85 97h48c-53 -28 -73 -50 -73 -79c0 -26 17 -39 51 -39c14 0 25 2 42 7z" />
    <glyph glyph-name="caron" unicode="&#x2c7;" horiz-adv-x="500" 
d="M299 567l-136 126l71 10l77 -66l99 66l70 -10z" />
    <glyph glyph-name="commaaccent" unicode="&#xf6c3;" horiz-adv-x="500" 
d="M239 -53h77l-101 -174h-31z" />
    <glyph glyph-name="emdash" unicode="&#x2014;" horiz-adv-x="667" 
d="M-3 220l9 57h664l-10 -57h-663z" />
    <glyph glyph-name="AE" unicode="&#xc6;" horiz-adv-x="874" 
d="M29 0h-84l499 667h441l-11 -66h-337l-37 -220h288l-11 -65h-288l-41 -245h363l-12 -71h-444l39 230h-194zM245 293h159l47 281z" />
    <glyph glyph-name="ordfeminine" unicode="&#xaa;" horiz-adv-x="352" 
d="M272 413l-8 -8c-24 -24 -62 -41 -97 -41c-60 0 -104 39 -104 91c0 33 18 62 49 80c34 19 73 26 141 26c12 0 21 0 42 -2c2 12 3 19 3 26c0 35 -22 53 -67 53c-42 0 -62 -12 -85 -51l-54 22c25 46 72 71 136 71c77 0 129 -34 129 -86c0 -11 -1 -20 -22 -152
c-4 -25 -6 -43 -6 -53c0 -3 0 -5 1 -17h-58c-1 6 -1 14 -1 21c0 6 0 10 1 20zM176 408c53 0 98 45 113 111c-19 2 -23 2 -37 2c-86 0 -126 -21 -126 -67c0 -28 19 -46 50 -46z" />
    <glyph glyph-name="Lslash" unicode="&#x141;" horiz-adv-x="509" 
d="M42 0l46 273l-72 -49l13 77l71 49l53 317h82l-47 -281l137 95l-13 -76l-137 -95l-40 -239h331l-12 -71h-412z" />
    <glyph glyph-name="Oslash" unicode="&#xd8;" horiz-adv-x="642" 
d="M24 -23l85 112c-38 59 -54 119 -54 198c0 81 23 168 63 238c59 102 143 155 246 155c63 0 110 -16 161 -55l55 68h73l-88 -112c37 -56 53 -116 53 -191c0 -82 -20 -170 -54 -233c-59 -111 -146 -170 -253 -170c-64 0 -115 18 -165 58l-51 -68h-71zM163 149l311 421
c-34 29 -70 43 -113 43c-65 0 -124 -38 -161 -103c-37 -67 -59 -157 -59 -245c0 -48 5 -74 22 -116zM196 99c35 -32 67 -45 111 -45c72 0 135 43 171 116c35 70 55 159 55 242c0 41 -6 69 -24 110z" />
    <glyph glyph-name="OE" unicode="&#x152;" horiz-adv-x="977" 
d="M459 0l5 41c-50 -38 -91 -52 -150 -52c-156 0 -259 118 -259 297c0 88 24 177 67 248c58 96 144 147 248 147c42 0 83 -8 117 -25c23 -11 26 -8 67 -49l6 -6l11 66h416l-11 -67h-335l-36 -219h285l-11 -65h-285l-41 -245h361l-12 -71h-443zM488 173l55 326
c-30 74 -92 115 -173 115c-69 0 -129 -37 -168 -103s-62 -156 -62 -238c0 -133 68 -216 178 -216c76 0 137 42 170 116z" />
    <glyph glyph-name="ordmasculine" unicode="&#xba;" horiz-adv-x="343" 
d="M205 366c-77 0 -129 56 -129 139c0 98 70 175 159 175c76 0 128 -55 128 -136c0 -100 -69 -178 -158 -178zM208 409c55 0 94 59 94 145c0 53 -26 84 -71 84c-54 0 -94 -60 -94 -143c0 -54 26 -86 71 -86z" />
    <glyph glyph-name="ae" unicode="&#xe6;" horiz-adv-x="841" 
d="M717 143l63 -27c-49 -87 -120 -131 -208 -131c-96 0 -164 46 -199 133c-58 -88 -126 -131 -205 -131c-90 0 -154 60 -154 144c0 66 38 121 103 150c39 17 100 26 173 26c20 0 37 -1 88 -4c5 22 6 34 6 50c0 65 -38 98 -113 98c-62 0 -102 -25 -135 -82l-70 29
c41 73 109 111 200 111c79 0 136 -25 172 -75c53 52 104 74 172 74c121 0 196 -80 196 -209c0 -18 -1 -32 -4 -58h-361c-3 -20 -4 -30 -4 -43c0 -88 55 -150 133 -150c59 0 103 29 147 95zM450 295h280c1 10 1 18 1 22c0 82 -49 135 -125 135c-78 0 -138 -60 -156 -157z
M370 248l-11 2c-11 1 -42 3 -59 3c-59 0 -110 -8 -141 -23c-39 -19 -65 -58 -65 -100c0 -49 34 -82 85 -82c89 0 178 93 191 200z" />
    <glyph glyph-name="dotlessi" unicode="&#x131;" horiz-adv-x="230" 
d="M36 0l83 495h76l-83 -495h-76z" />
    <glyph glyph-name="lslash" unicode="&#x142;" horiz-adv-x="243" 
d="M42 0l51 305l-68 -49l12 70l68 49l49 292h76l-42 -250l68 47l-12 -70l-68 -47l-58 -347h-76z" />
    <glyph glyph-name="oslash" unicode="&#xf8;" horiz-adv-x="521" 
d="M2 -27l76 93c-28 45 -41 90 -41 148c0 73 25 147 69 202c47 60 108 91 180 91c52 0 87 -12 127 -44l51 59h68l-85 -98c26 -44 37 -86 37 -141c0 -166 -109 -298 -246 -298c-49 0 -87 13 -126 43l-48 -55h-62zM130 123l236 291c-26 23 -52 33 -85 33
c-45 0 -86 -23 -111 -63c-32 -51 -51 -121 -51 -191c0 -28 2 -43 11 -70zM158 78c26 -23 47 -31 80 -31c50 0 90 23 117 68c31 50 48 117 48 187c0 28 -2 43 -9 68z" />
    <glyph glyph-name="oe" unicode="&#x153;" horiz-adv-x="896" 
d="M771 145l64 -31c-33 -48 -50 -67 -79 -87c-37 -26 -84 -40 -132 -40c-81 0 -138 32 -184 103c-50 -69 -116 -104 -195 -104c-122 0 -208 96 -208 230c0 68 23 139 64 193c48 65 116 99 193 99c80 0 131 -29 176 -99c60 72 116 102 193 102c124 0 197 -82 197 -222
c0 -15 -1 -26 -4 -48h-363c-2 -19 -3 -29 -3 -41c0 -91 53 -150 134 -150c60 0 100 26 147 95zM502 296h282l1 24c3 81 -48 134 -124 134c-80 0 -137 -57 -159 -158zM124 197c0 -94 47 -149 127 -149c49 0 93 26 121 71c29 47 47 114 47 176c0 98 -45 152 -128 152
c-47 0 -90 -23 -116 -62c-31 -48 -51 -120 -51 -188z" />
    <glyph glyph-name="germandbls" unicode="&#xdf;" horiz-adv-x="554" 
d="M30 -29l72 428h-51l10 62l51 -1c17 82 34 124 66 166c42 55 101 83 176 83c94 0 162 -55 162 -131c0 -68 -50 -124 -126 -143c-33 -8 -67 -12 -103 -12c-6 -5 -8 -9 -8 -13c0 -11 11 -19 41 -30c100 -37 129 -52 156 -80c28 -30 43 -66 43 -105c0 -73 -44 -145 -110 -180
c-34 -18 -75 -27 -120 -27c-44 0 -78 7 -119 25l21 58c35 -14 63 -19 98 -19c84 0 146 53 146 124c0 50 -19 70 -112 116c-92 45 -111 61 -111 98c0 26 11 50 33 74c55 6 95 14 128 28c39 16 66 50 66 83c0 43 -38 72 -93 72c-48 0 -88 -20 -115 -57
c-23 -31 -31 -59 -45 -142l-80 -477h-76z" />
    <glyph glyph-name="onesuperior" unicode="&#xe105;" horiz-adv-x="387" 
d="M83 266l7 45h108l48 289c-23 -24 -75 -42 -121 -42l8 46c70 9 113 31 141 72h40l-61 -365h113l-7 -45h-276z" />
    <glyph glyph-name="logicalnot" unicode="&#xac;" 
d="M143 199l-51 49v18h433v-266h-75v199h-307z" />
    <glyph glyph-name="mu" unicode="&#xb5;" 
d="M142 68l-39 -235h-76l111 662h76l-47 -277c-4 -25 -6 -46 -6 -62c0 -59 41 -102 97 -102c43 0 84 21 111 57c20 27 32 59 41 113l45 271h76l-83 -495h-69l14 82c-45 -71 -81 -95 -141 -95c-56 0 -86 22 -110 81z" />
    <glyph glyph-name="trademark" unicode="&#x2122;" horiz-adv-x="795" 
d="M349 287l64 380h84l69 -295l164 295h89l-63 -380h-61l54 318l-177 -318h-46l-72 313l-53 -313h-52zM125 287l56 335h-118l7 45h297l-8 -45h-118l-56 -335h-60z" />
    <glyph glyph-name="Eth" unicode="&#xd0;" horiz-adv-x="648" 
d="M42 0l52 321h-67l10 60h66l46 286h185c105 0 161 -22 214 -83c48 -55 71 -126 71 -215c0 -112 -36 -213 -105 -285c-58 -62 -119 -84 -225 -84h-247zM135 68l134 -1h4c112 0 176 34 223 125c26 52 41 117 41 183c0 72 -17 129 -50 169c-35 42 -86 61 -163 60l-104 -1
l-35 -222h159l-10 -60h-159z" />
    <glyph glyph-name="onehalf" unicode="&#xbd;" horiz-adv-x="880" 
d="M64 266l7 45h108l48 289c-23 -24 -75 -42 -121 -42l8 46c70 9 113 31 141 72h40l-61 -365h113l-7 -45h-276zM166 0l514 667h63l-514 -667h-63zM515 0l9 54c215 127 273 177 273 235c0 43 -39 77 -88 77c-31 0 -62 -14 -78 -37c-9 -13 -14 -22 -28 -55l-47 17
c28 81 79 121 154 121c82 0 146 -55 146 -126c0 -60 -33 -100 -139 -166c-39 -24 -89 -53 -123 -71h229l-8 -49h-300z" />
    <glyph glyph-name="plusminus" unicode="&#xb1;" 
d="M258 95v205h-197v68h197v205h73v-205h197v-68h-197v-205h-73zM61 -33v68h467v-68h-467z" />
    <glyph glyph-name="Thorn" unicode="&#xde;" horiz-adv-x="563" 
d="M42 0l112 667h81l-16 -97h101c80 0 120 -8 154 -28c50 -30 83 -93 83 -157c0 -58 -29 -122 -73 -160c-43 -37 -101 -52 -198 -52h-134l-29 -173h-81zM163 240h92c93 0 121 4 150 19c40 21 67 73 67 125c0 48 -23 92 -55 107c-22 10 -50 14 -99 14l-110 -1z" />
    <glyph glyph-name="onequarter" unicode="&#xbc;" horiz-adv-x="880" 
d="M64 266l7 45h108l48 289c-23 -24 -75 -42 -121 -42l8 46c70 9 113 31 141 72h40l-61 -365h113l-7 -45h-276zM166 0l514 667h63l-514 -667h-63zM521 95l8 43l233 273h65l-45 -271h68l-7 -45h-68l-16 -95h-56l16 95h-198zM583 140h144l35 208z" />
    <glyph glyph-name="divide" unicode="&#xf7;" 
d="M307 437c-26 0 -47 21 -47 47s21 47 48 47c25 0 46 -22 46 -47c0 -26 -21 -47 -47 -47zM74 300v68h467v-68h-467zM260 189c0 26 21 47 48 47c25 0 46 -22 46 -47c0 -26 -21 -47 -47 -47s-47 21 -47 47z" />
    <glyph glyph-name="brokenbar" unicode="&#xa6;" horiz-adv-x="500" 
d="M228 333v334h75v-334h-75zM228 153h75v-320h-75v320z" />
    <glyph glyph-name="degree" unicode="&#xb0;" 
d="M341 416c-71 0 -130 60 -130 132c0 73 60 132 133 132s132 -59 132 -132c0 -74 -60 -132 -135 -132zM342 473c43 0 77 34 77 76c0 41 -34 75 -76 75c-41 0 -75 -34 -75 -76c0 -41 33 -75 74 -75z" />
    <glyph glyph-name="thorn" unicode="&#xfe;" horiz-adv-x="536" 
d="M124 73l-41 -246h-77l140 840h77l-44 -261c49 66 100 98 160 98c96 0 162 -85 162 -209c0 -168 -104 -308 -230 -308c-64 0 -109 26 -147 86zM145 186c0 -83 45 -137 114 -137c50 0 90 25 114 70c27 50 45 122 45 183c0 40 -6 66 -19 89c-18 31 -52 50 -87 50
c-85 0 -167 -125 -167 -255z" />
    <glyph glyph-name="threequarters" unicode="&#xbe;" horiz-adv-x="880" 
d="M129 570l-44 23c32 56 78 83 141 83c77 0 135 -46 135 -108c0 -46 -25 -75 -84 -94c40 -13 67 -52 67 -94c0 -69 -66 -123 -152 -123c-77 0 -135 38 -160 104l48 17c24 -52 58 -76 110 -76c55 0 96 34 96 79c0 38 -25 64 -69 70c-12 2 -16 2 -73 2l8 46
c29 -1 30 -1 42 -1c30 0 50 2 67 8c26 9 44 35 44 61c0 37 -35 66 -81 66c-42 0 -71 -19 -95 -63zM186 0l513 667h64l-514 -667h-63zM521 95l7 43l234 273h65l-45 -271h68l-8 -45h-68l-16 -95h-55l16 95h-198zM583 140h144l34 208z" />
    <glyph glyph-name="twosuperior" unicode="&#xe107;" horiz-adv-x="387" 
d="M47 266l9 54c213 126 273 178 273 235c0 44 -39 78 -89 78c-31 0 -61 -14 -77 -37c-10 -13 -15 -23 -28 -55l-47 17c28 81 79 122 153 122c82 0 146 -56 146 -126c0 -75 -57 -128 -262 -239h230l-8 -49h-300z" />
    <glyph glyph-name="registered" unicode="&#xae;" horiz-adv-x="773" 
d="M56 336c0 190 156 342 350 342c185 0 339 -157 339 -344c0 -191 -154 -345 -344 -345c-192 0 -345 154 -345 347zM105 336c0 -165 131 -298 296 -298c162 0 295 133 295 296c0 160 -133 295 -291 295c-90 0 -165 -33 -224 -98c-48 -53 -76 -124 -76 -195zM223 133l67 400
h134c49 0 78 -5 100 -17c35 -19 55 -53 55 -91c0 -54 -38 -98 -94 -109l60 -183h-64l-56 173h-112l-29 -173h-61zM320 352h90c74 0 107 23 107 74c0 41 -28 62 -84 62h-90z" />
    <glyph glyph-name="minus" unicode="&#x2212;" 
d="M74 300v68h467v-68h-467z" />
    <glyph glyph-name="eth" unicode="&#xf0;" horiz-adv-x="511" 
d="M458 639l-73 -35c65 -77 99 -178 99 -291c0 -194 -102 -327 -251 -327c-68 0 -119 26 -155 78c-28 41 -44 93 -44 147c0 73 30 151 78 205c45 51 101 77 163 77c41 0 72 -12 105 -42c-13 48 -29 82 -56 122l-81 -41l-25 42l69 36c-17 15 -43 31 -73 44l29 44
c40 -14 76 -33 106 -57l83 41zM116 198c0 -96 43 -150 120 -150c55 0 96 27 124 81c24 48 39 110 39 166c0 83 -49 139 -122 139c-48 0 -88 -23 -116 -69s-45 -108 -45 -167z" />
    <glyph glyph-name="multiply" unicode="&#xd7;" 
d="M157 135l-48 48l151 151l-151 151l48 48l151 -151l150 151l48 -48l-151 -151l151 -151l-48 -48l-150 151z" />
    <glyph glyph-name="threesuperior" unicode="&#xe108;" horiz-adv-x="387" 
d="M148 570l-44 23c32 56 78 83 141 83c77 0 135 -46 135 -108c0 -46 -25 -75 -84 -94c40 -13 67 -52 67 -94c0 -69 -66 -123 -152 -123c-77 0 -135 38 -160 104l48 17c24 -52 58 -76 110 -76c55 0 96 34 96 79c0 38 -25 64 -69 70c-12 2 -16 2 -73 2l8 46
c29 -1 30 -1 42 -1c30 0 50 2 67 8c26 9 44 35 44 61c0 37 -35 66 -81 66c-42 0 -71 -19 -95 -63z" />
    <glyph glyph-name="copyright" unicode="&#xa9;" horiz-adv-x="773" 
d="M56 336c0 190 156 342 350 342c185 0 339 -157 339 -344c0 -191 -154 -345 -344 -345c-192 0 -345 154 -345 347zM105 336c0 -165 131 -298 296 -298c162 0 295 133 295 296c0 160 -133 295 -291 295c-90 0 -165 -33 -224 -98c-48 -53 -76 -124 -76 -195zM495 268l51 -19
c-29 -79 -85 -122 -160 -122c-95 0 -157 69 -157 176c0 134 86 241 195 241c57 0 108 -29 130 -74c9 -17 13 -30 18 -63l-56 -13c-9 72 -38 104 -94 104c-35 0 -67 -19 -87 -52c-25 -41 -42 -101 -42 -151c0 -75 36 -122 95 -122c47 0 75 25 107 95z" />
    <glyph glyph-name="Aacute" unicode="&#xc1;" horiz-adv-x="564" 
d="M330 730l-21 39l187 105l30 -58zM-28 0l326 667h93l116 -667h-86l-34 195h-243l-96 -195h-76zM175 262h202l-52 307z" />
    <glyph glyph-name="Acircumflex" unicode="&#xc2;" horiz-adv-x="564" 
d="M198 743l180 120l137 -120l-71 -10l-78 60l-98 -60zM-28 0l326 667h93l116 -667h-86l-34 195h-243l-96 -195h-76zM175 262h202l-52 307z" />
    <glyph glyph-name="Adieresis" unicode="&#xc4;" horiz-adv-x="564" 
d="M438 743c-27 0 -50 23 -50 51s23 50 51 50c27 0 50 -23 50 -50c0 -28 -23 -51 -51 -51zM283 743c-28 0 -50 23 -50 50c0 28 22 50 50 50c27 0 50 -23 50 -50s-23 -50 -50 -50zM-28 0l326 667h93l116 -667h-86l-34 195h-243l-96 -195h-76zM175 262h202l-52 307z" />
    <glyph glyph-name="Agrave" unicode="&#xc0;" horiz-adv-x="564" 
d="M375 730l-189 86l30 58l180 -105zM-28 0l326 667h93l116 -667h-86l-34 195h-243l-96 -195h-76zM175 262h202l-52 307z" />
    <glyph glyph-name="Aring" unicode="&#xc5;" horiz-adv-x="564" 
d="M361 711c-49 0 -89 40 -89 88c0 49 40 88 90 88c47 0 86 -40 86 -89c0 -48 -39 -87 -87 -87zM361 754c24 0 43 20 43 44c0 25 -19 45 -43 45c-25 0 -45 -20 -45 -44c0 -25 20 -45 45 -45zM-28 0l326 667h93l116 -667h-86l-34 195h-243l-96 -195h-76zM175 262h202l-52 307
z" />
    <glyph glyph-name="Atilde" unicode="&#xc3;" horiz-adv-x="564" 
d="M238 749l-40 29c28 41 65 62 108 62c23 0 23 0 84 -26c14 -6 29 -9 44 -9c22 0 36 6 57 26l37 -36c-38 -38 -60 -49 -97 -49c-24 0 -24 0 -84 27c-14 6 -29 9 -44 9c-27 0 -43 -8 -65 -33zM-28 0l326 667h93l116 -667h-86l-34 195h-243l-96 -195h-76zM175 262h202
l-52 307z" />
    <glyph glyph-name="Ccedilla" unicode="&#xc7;" horiz-adv-x="576" 
d="M188 -142c31 -14 48 -19 73 -19c37 0 61 16 61 41c0 24 -20 35 -63 35c-10 0 -19 -1 -37 -3l35 79c-125 17 -204 128 -204 287c0 86 25 178 67 251c58 101 142 155 240 155c75 0 143 -33 184 -89c24 -33 36 -68 45 -133l-73 -19c-6 49 -14 77 -28 103
c-25 45 -73 71 -128 71c-61 0 -116 -33 -150 -90c-43 -71 -71 -176 -71 -262c0 -129 61 -209 159 -209c49 0 95 24 131 69c16 20 29 45 49 88l67 -26c-45 -128 -134 -199 -250 -199l-17 -40l20 1c46 2 80 -28 80 -66c0 -50 -46 -84 -115 -84c-35 0 -60 7 -92 24z" />
    <glyph glyph-name="Eacute" unicode="&#xc9;" horiz-adv-x="559" 
d="M340 730l-21 39l187 105l30 -58zM42 0l112 667h415l-11 -66h-334l-37 -220h286l-11 -66h-286l-41 -244h361l-12 -71h-442z" />
    <glyph glyph-name="Ecircumflex" unicode="&#xca;" horiz-adv-x="559" 
d="M227 743l180 120l137 -120l-71 -10l-78 60l-98 -60zM42 0l112 667h415l-11 -66h-334l-37 -220h286l-11 -66h-286l-41 -244h361l-12 -71h-442z" />
    <glyph glyph-name="Edieresis" unicode="&#xcb;" horiz-adv-x="559" 
d="M462 743c-27 0 -50 23 -50 51s23 50 51 50c27 0 50 -23 50 -50c0 -28 -23 -51 -51 -51zM306 743c-28 0 -50 23 -50 50c0 28 22 50 50 50c27 0 50 -23 50 -50s-23 -50 -50 -50zM42 0l112 667h415l-11 -66h-334l-37 -220h286l-11 -66h-286l-41 -244h361l-12 -71h-442z" />
    <glyph glyph-name="Egrave" unicode="&#xc8;" horiz-adv-x="559" 
d="M418 730l-189 86l30 58l180 -105zM42 0l112 667h415l-11 -66h-334l-37 -220h286l-11 -66h-286l-41 -244h361l-12 -71h-442z" />
    <glyph glyph-name="Iacute" unicode="&#xcd;" horiz-adv-x="248" 
d="M194 730l-21 39l166 105l31 -56zM42 0l112 667h81l-112 -667h-81z" />
    <glyph glyph-name="Icircumflex" unicode="&#xce;" horiz-adv-x="248" 
d="M134 733l-63 10l153 120l111 -120l-64 -10l-59 60zM42 0l112 667h81l-112 -667h-81z" />
    <glyph glyph-name="Idieresis" unicode="&#xcf;" horiz-adv-x="248" 
d="M276 743c-27 0 -50 23 -50 51s23 50 51 50c27 0 50 -23 50 -50c0 -28 -23 -51 -51 -51zM144 743c-28 0 -50 23 -50 50c0 28 22 50 50 50c27 0 50 -23 50 -50s-23 -50 -50 -50zM42 0l112 667h81l-112 -667h-81z" />
    <glyph glyph-name="Igrave" unicode="&#xcc;" horiz-adv-x="248" 
d="M227 730l-169 86l32 58l158 -105zM42 0l112 667h81l-112 -667h-81z" />
    <glyph glyph-name="Ntilde" unicode="&#xd1;" horiz-adv-x="655" 
d="M305 749l-40 29c28 41 64 62 108 62c22 0 22 0 84 -26c14 -6 29 -9 44 -9c21 0 36 6 57 26l37 -36c-38 -38 -61 -49 -98 -49c-23 0 -23 0 -83 27c-14 6 -29 9 -45 9c-26 0 -43 -8 -64 -33zM42 0l112 667h91l242 -532l89 532h66l-112 -667h-65l-262 570l-95 -570h-66z" />
    <glyph glyph-name="Oacute" unicode="&#xd3;" horiz-adv-x="642" 
d="M384 730l-21 39l186 105l30 -58zM55 286c0 82 23 170 63 239c58 101 145 155 247 155c154 0 253 -115 253 -293c0 -74 -19 -156 -50 -220c-58 -119 -146 -180 -260 -180c-152 0 -253 119 -253 299zM141 269c0 -132 65 -215 167 -215c92 0 163 67 200 189
c13 44 25 122 25 166c0 123 -68 204 -171 204c-86 0 -152 -58 -190 -167c-19 -54 -31 -121 -31 -177z" />
    <glyph glyph-name="Ocircumflex" unicode="&#xd4;" horiz-adv-x="642" 
d="M233 743l179 120l138 -120l-71 -10l-79 60l-97 -60zM55 286c0 82 23 170 63 239c58 101 145 155 247 155c154 0 253 -115 253 -293c0 -74 -19 -156 -50 -220c-58 -119 -146 -180 -260 -180c-152 0 -253 119 -253 299zM141 269c0 -132 65 -215 167 -215
c92 0 163 67 200 189c13 44 25 122 25 166c0 123 -68 204 -171 204c-86 0 -152 -58 -190 -167c-19 -54 -31 -121 -31 -177z" />
    <glyph glyph-name="Odieresis" unicode="&#xd6;" horiz-adv-x="642" 
d="M491 743c-27 0 -50 23 -50 51s23 50 51 50c27 0 50 -23 50 -50c0 -28 -23 -51 -51 -51zM335 743c-28 0 -50 23 -50 50c0 28 22 50 50 50c27 0 50 -23 50 -50s-23 -50 -50 -50zM55 286c0 82 23 170 63 239c58 101 145 155 247 155c154 0 253 -115 253 -293
c0 -74 -19 -156 -50 -220c-58 -119 -146 -180 -260 -180c-152 0 -253 119 -253 299zM141 269c0 -132 65 -215 167 -215c92 0 163 67 200 189c13 44 25 122 25 166c0 123 -68 204 -171 204c-86 0 -152 -58 -190 -167c-19 -54 -31 -121 -31 -177z" />
    <glyph glyph-name="Ograve" unicode="&#xd2;" horiz-adv-x="642" 
d="M442 730l-189 86l30 58l180 -105zM55 286c0 82 23 170 63 239c58 101 145 155 247 155c154 0 253 -115 253 -293c0 -74 -19 -156 -50 -220c-58 -119 -146 -180 -260 -180c-152 0 -253 119 -253 299zM141 269c0 -132 65 -215 167 -215c92 0 163 67 200 189
c13 44 25 122 25 166c0 123 -68 204 -171 204c-86 0 -152 -58 -190 -167c-19 -54 -31 -121 -31 -177z" />
    <glyph glyph-name="Otilde" unicode="&#xd5;" horiz-adv-x="642" 
d="M306 749l-41 29c28 41 65 62 108 62c23 0 23 0 84 -26c14 -6 29 -9 44 -9c22 0 36 6 58 26l36 -36c-38 -38 -60 -49 -97 -49c-24 0 -24 0 -84 27c-14 6 -29 9 -44 9c-27 0 -43 -8 -64 -33zM55 286c0 82 23 170 63 239c58 101 145 155 247 155c154 0 253 -115 253 -293
c0 -74 -19 -156 -50 -220c-58 -119 -146 -180 -260 -180c-152 0 -253 119 -253 299zM141 269c0 -132 65 -215 167 -215c92 0 163 67 200 189c13 44 25 122 25 166c0 123 -68 204 -171 204c-86 0 -152 -58 -190 -167c-19 -54 -31 -121 -31 -177z" />
    <glyph glyph-name="Scaron" unicode="&#x160;" horiz-adv-x="572" 
d="M321 727l-137 120l71 10l78 -60l98 60l70 -10zM544 528l-70 -27c-30 79 -90 121 -175 121c-84 0 -140 -47 -140 -117c0 -30 13 -57 36 -73c27 -19 27 -20 115 -42c82 -21 115 -32 141 -49c51 -33 78 -83 78 -146c0 -126 -100 -209 -254 -209c-74 0 -141 21 -190 59
c-36 28 -60 64 -81 126l73 27c17 -48 30 -71 51 -92c35 -34 88 -53 149 -53c99 0 169 55 169 133c0 41 -20 74 -57 92c-21 11 -27 13 -101 30c-63 15 -106 31 -139 53c-46 29 -72 79 -72 136c0 111 90 188 220 188c121 0 205 -53 247 -157z" />
    <glyph glyph-name="Uacute" unicode="&#xda;" horiz-adv-x="615" 
d="M365 730l-20 39l186 105l30 -58zM611 667l-67 -406c-20 -121 -43 -175 -88 -217c-41 -38 -102 -59 -171 -59c-137 0 -220 70 -220 187c0 24 1 31 17 126l61 369h82l-65 -387c-13 -78 -14 -78 -14 -103c0 -76 56 -125 143 -125c51 0 98 17 127 47c31 31 44 66 59 154
l69 414h67z" />
    <glyph glyph-name="Ucircumflex" unicode="&#xdb;" horiz-adv-x="615" 
d="M239 743l180 120l137 -120l-71 -10l-78 60l-98 -60zM611 667l-67 -406c-20 -121 -43 -175 -88 -217c-41 -38 -102 -59 -171 -59c-137 0 -220 70 -220 187c0 24 1 31 17 126l61 369h82l-65 -387c-13 -78 -14 -78 -14 -103c0 -76 56 -125 143 -125c51 0 98 17 127 47
c31 31 44 66 59 154l69 414h67z" />
    <glyph glyph-name="Udieresis" unicode="&#xdc;" horiz-adv-x="615" 
d="M477 743c-27 0 -50 23 -50 51s23 50 51 50c27 0 50 -23 50 -50c0 -28 -23 -51 -51 -51zM321 743c-28 0 -50 23 -50 50c0 28 22 50 50 50c27 0 50 -23 50 -50s-23 -50 -50 -50zM611 667l-67 -406c-20 -121 -43 -175 -88 -217c-41 -38 -102 -59 -171 -59
c-137 0 -220 70 -220 187c0 24 1 31 17 126l61 369h82l-65 -387c-13 -78 -14 -78 -14 -103c0 -76 56 -125 143 -125c51 0 98 17 127 47c31 31 44 66 59 154l69 414h67z" />
    <glyph glyph-name="Ugrave" unicode="&#xd9;" horiz-adv-x="615" 
d="M431 730l-189 86l30 58l180 -105zM611 667l-67 -406c-20 -121 -43 -175 -88 -217c-41 -38 -102 -59 -171 -59c-137 0 -220 70 -220 187c0 24 1 31 17 126l61 369h82l-65 -387c-13 -78 -14 -78 -14 -103c0 -76 56 -125 143 -125c51 0 98 17 127 47c31 31 44 66 59 154
l69 414h67z" />
    <glyph glyph-name="Yacute" unicode="&#xdd;" horiz-adv-x="512" 
d="M318 730l-21 39l187 105l30 -58zM175 0l47 279l-170 388h90l138 -316l230 316h82l-286 -388l-47 -279h-84z" />
    <glyph glyph-name="Ydieresis" unicode="&#x178;" horiz-adv-x="512" 
d="M418 743c-27 0 -50 23 -50 51s23 50 51 50c27 0 50 -23 50 -50c0 -28 -23 -51 -51 -51zM263 743c-28 0 -50 23 -50 50c0 28 22 50 50 50c27 0 50 -23 50 -50s-23 -50 -50 -50zM175 0l47 279l-170 388h90l138 -316l230 316h82l-286 -388l-47 -279h-84z" />
    <glyph glyph-name="Zcaron" unicode="&#x17d;" horiz-adv-x="525" 
d="M342 727l-137 120l70 10l79 -60l98 60l70 -10zM-18 0l12 71l433 529h-334l11 67h444l-10 -55l-442 -541h376l-11 -71h-479z" />
    <glyph glyph-name="aacute" unicode="&#xe1;" horiz-adv-x="535" 
d="M286 570l-21 39l187 112l30 -59zM428 0h-77c-1 12 -1 18 -1 25c0 27 2 44 9 72c-52 -76 -112 -111 -185 -111c-91 0 -158 62 -158 148c0 71 47 128 128 155c38 13 94 19 173 19c18 0 18 2 63 -2l11 -1c4 28 5 38 5 53c0 60 -40 93 -114 93c-67 0 -109 -25 -142 -84
l-73 31c38 73 112 113 209 113c117 0 199 -56 199 -135c0 -22 -3 -36 -38 -263c-7 -43 -10 -75 -10 -93c0 -2 0 -9 1 -20zM100 131c0 -50 34 -82 88 -82c57 0 112 34 152 93c21 31 32 60 42 107c-40 2 -40 2 -67 2c-63 0 -111 -7 -143 -20c-47 -20 -72 -55 -72 -100z" />
    <glyph glyph-name="acircumflex" unicode="&#xe2;" horiz-adv-x="535" 
d="M152 583l181 127l136 -127l-71 -10l-77 67l-99 -67zM428 0h-77c-1 12 -1 18 -1 25c0 27 2 44 9 72c-52 -76 -112 -111 -185 -111c-91 0 -158 62 -158 148c0 71 47 128 128 155c38 13 94 19 173 19c18 0 18 2 63 -2l11 -1c4 28 5 38 5 53c0 60 -40 93 -114 93
c-67 0 -109 -25 -142 -84l-73 31c38 73 112 113 209 113c117 0 199 -56 199 -135c0 -22 -3 -36 -38 -263c-7 -43 -10 -75 -10 -93c0 -2 0 -9 1 -20zM100 131c0 -50 34 -82 88 -82c57 0 112 34 152 93c21 31 32 60 42 107c-40 2 -40 2 -67 2c-63 0 -111 -7 -143 -20
c-47 -20 -72 -55 -72 -100z" />
    <glyph glyph-name="adieresis" unicode="&#xe4;" horiz-adv-x="535" 
d="M394 587c-27 0 -50 23 -50 51s23 50 51 50c27 0 50 -23 50 -50c0 -28 -23 -51 -51 -51zM239 587c-28 0 -50 23 -50 50c0 28 22 50 50 50c27 0 50 -23 50 -50s-23 -50 -50 -50zM428 0h-77c-1 12 -1 18 -1 25c0 27 2 44 9 72c-52 -76 -112 -111 -185 -111
c-91 0 -158 62 -158 148c0 71 47 128 128 155c38 13 94 19 173 19c18 0 18 2 63 -2l11 -1c4 28 5 38 5 53c0 60 -40 93 -114 93c-67 0 -109 -25 -142 -84l-73 31c38 73 112 113 209 113c117 0 199 -56 199 -135c0 -22 -3 -36 -38 -263c-7 -43 -10 -75 -10 -93
c0 -2 0 -9 1 -20zM100 131c0 -50 34 -82 88 -82c57 0 112 34 152 93c21 31 32 60 42 107c-40 2 -40 2 -67 2c-63 0 -111 -7 -143 -20c-47 -20 -72 -55 -72 -100z" />
    <glyph glyph-name="agrave" unicode="&#xe0;" horiz-adv-x="535" 
d="M357 570l-189 92l30 59l180 -112zM428 0h-77c-1 12 -1 18 -1 25c0 27 2 44 9 72c-52 -76 -112 -111 -185 -111c-91 0 -158 62 -158 148c0 71 47 128 128 155c38 13 94 19 173 19c18 0 18 2 63 -2l11 -1c4 28 5 38 5 53c0 60 -40 93 -114 93c-67 0 -109 -25 -142 -84
l-73 31c38 73 112 113 209 113c117 0 199 -56 199 -135c0 -22 -3 -36 -38 -263c-7 -43 -10 -75 -10 -93c0 -2 0 -9 1 -20zM100 131c0 -50 34 -82 88 -82c57 0 112 34 152 93c21 31 32 60 42 107c-40 2 -40 2 -67 2c-63 0 -111 -7 -143 -20c-47 -20 -72 -55 -72 -100z" />
    <glyph glyph-name="aring" unicode="&#xe5;" horiz-adv-x="535" 
d="M321 563c-46 0 -85 38 -85 85s39 85 86 85c46 0 83 -39 83 -86c0 -46 -37 -84 -84 -84zM321 603c24 0 44 20 44 45c0 24 -20 45 -43 45c-25 0 -46 -20 -46 -45c0 -24 21 -45 45 -45zM428 0h-77c-1 12 -1 18 -1 25c0 27 2 44 9 72c-52 -76 -112 -111 -185 -111
c-91 0 -158 62 -158 148c0 71 47 128 128 155c38 13 94 19 173 19c18 0 18 2 63 -2l11 -1c4 28 5 38 5 53c0 60 -40 93 -114 93c-67 0 -109 -25 -142 -84l-73 31c38 73 112 113 209 113c117 0 199 -56 199 -135c0 -22 -3 -36 -38 -263c-7 -43 -10 -75 -10 -93
c0 -2 0 -9 1 -20zM100 131c0 -50 34 -82 88 -82c57 0 112 34 152 93c21 31 32 60 42 107c-40 2 -40 2 -67 2c-63 0 -111 -7 -143 -20c-47 -20 -72 -55 -72 -100z" />
    <glyph glyph-name="atilde" unicode="&#xe3;" horiz-adv-x="535" 
d="M198 593l-41 29c29 41 65 62 108 62c23 0 23 0 85 -26c13 -6 28 -9 43 -9c22 0 36 6 58 25l37 -35c-38 -37 -61 -49 -98 -49c-24 0 -24 0 -84 27c-14 6 -29 9 -44 9c-27 0 -43 -9 -64 -33zM428 0h-77c-1 12 -1 18 -1 25c0 27 2 44 9 72c-52 -76 -112 -111 -185 -111
c-91 0 -158 62 -158 148c0 71 47 128 128 155c38 13 94 19 173 19c18 0 18 2 63 -2l11 -1c4 28 5 38 5 53c0 60 -40 93 -114 93c-67 0 -109 -25 -142 -84l-73 31c38 73 112 113 209 113c117 0 199 -56 199 -135c0 -22 -3 -36 -38 -263c-7 -43 -10 -75 -10 -93
c0 -2 0 -9 1 -20zM100 131c0 -50 34 -82 88 -82c57 0 112 34 152 93c21 31 32 60 42 107c-40 2 -40 2 -67 2c-63 0 -111 -7 -143 -20c-47 -20 -72 -55 -72 -100z" />
    <glyph glyph-name="ccedilla" unicode="&#xe7;" horiz-adv-x="474" 
d="M160 -81l29 68c-96 17 -153 99 -153 221c0 67 16 130 48 184c45 77 111 119 190 119c100 0 175 -69 185 -174l-74 -16c-11 78 -53 123 -115 123c-48 0 -90 -29 -114 -79c-23 -48 -38 -113 -38 -170c0 -89 43 -144 113 -144c59 0 101 36 136 119l62 -23
c-31 -99 -110 -162 -204 -163l-14 -32c8 1 14 1 18 1c42 0 74 -26 74 -61c0 -46 -42 -77 -106 -77c-33 0 -55 6 -84 22l15 32c28 -13 44 -17 67 -17c34 0 56 15 56 38c0 22 -19 32 -58 32c-10 0 -18 -1 -33 -3z" />
    <glyph glyph-name="eacute" unicode="&#xe9;" horiz-adv-x="520" 
d="M285 570l-21 39l187 112l30 -59zM394 146l64 -30c-56 -91 -121 -130 -214 -130c-128 0 -211 90 -211 227c0 170 110 298 255 298c123 0 197 -81 197 -213c0 -19 -1 -32 -5 -57h-364c-2 -18 -3 -27 -3 -39c0 -92 52 -152 132 -152c64 0 99 23 149 96zM125 297h282l1 24
c3 79 -49 131 -124 131c-78 0 -140 -60 -159 -155z" />
    <glyph glyph-name="ecircumflex" unicode="&#xea;" horiz-adv-x="520" 
d="M151 583l181 127l136 -127l-71 -10l-77 67l-99 -67zM394 146l64 -30c-56 -91 -121 -130 -214 -130c-128 0 -211 90 -211 227c0 170 110 298 255 298c123 0 197 -81 197 -213c0 -19 -1 -32 -5 -57h-364c-2 -18 -3 -27 -3 -39c0 -92 52 -152 132 -152c64 0 99 23 149 96z
M125 297h282l1 24c3 79 -49 131 -124 131c-78 0 -140 -60 -159 -155z" />
    <glyph glyph-name="edieresis" unicode="&#xeb;" horiz-adv-x="520" 
d="M408 587c-27 0 -50 23 -50 51s23 50 51 50c27 0 50 -23 50 -50c0 -28 -23 -51 -51 -51zM253 587c-28 0 -50 23 -50 50c0 28 22 50 50 50c27 0 50 -23 50 -50s-23 -50 -50 -50zM394 146l64 -30c-56 -91 -121 -130 -214 -130c-128 0 -211 90 -211 227
c0 170 110 298 255 298c123 0 197 -81 197 -213c0 -19 -1 -32 -5 -57h-364c-2 -18 -3 -27 -3 -39c0 -92 52 -152 132 -152c64 0 99 23 149 96zM125 297h282l1 24c3 79 -49 131 -124 131c-78 0 -140 -60 -159 -155z" />
    <glyph glyph-name="egrave" unicode="&#xe8;" horiz-adv-x="520" 
d="M347 570l-189 92l30 59l180 -112zM394 146l64 -30c-56 -91 -121 -130 -214 -130c-128 0 -211 90 -211 227c0 170 110 298 255 298c123 0 197 -81 197 -213c0 -19 -1 -32 -5 -57h-364c-2 -18 -3 -27 -3 -39c0 -92 52 -152 132 -152c64 0 99 23 149 96zM125 297h282l1 24
c3 79 -49 131 -124 131c-78 0 -140 -60 -159 -155z" />
    <glyph glyph-name="iacute" unicode="&#xed;" horiz-adv-x="230" 
d="M158 570l-21 39l165 112l31 -56zM36 0l83 495h76l-83 -495h-76z" />
    <glyph glyph-name="icircumflex" unicode="&#xee;" horiz-adv-x="230" 
d="M97 573l-63 10l154 127l110 -127l-64 -10l-58 67zM35 0l83 495h76l-83 -495h-76z" />
    <glyph glyph-name="idieresis" unicode="&#xef;" horiz-adv-x="230" 
d="M237 587c-27 0 -50 23 -50 51s23 50 51 50c27 0 50 -23 50 -50c0 -28 -23 -51 -51 -51zM109 587c-28 0 -50 23 -50 50c0 28 22 50 50 50c27 0 50 -23 50 -50s-23 -50 -50 -50zM36 0l83 495h76l-83 -495h-76z" />
    <glyph glyph-name="igrave" unicode="&#xec;" horiz-adv-x="230" 
d="M194 570l-168 95l31 56l158 -112zM35 0l83 495h76l-83 -495h-76z" />
    <glyph glyph-name="ntilde" unicode="&#xf1;" horiz-adv-x="548" 
d="M226 593l-41 29c29 41 65 62 108 62c23 0 23 0 85 -26c13 -6 28 -9 43 -9c22 0 36 6 58 25l37 -35c-38 -37 -61 -49 -98 -49c-24 0 -24 0 -84 27c-14 6 -29 9 -44 9c-27 0 -43 -9 -64 -33zM35 0l83 495h66l-19 -110c46 84 102 124 175 124c83 0 146 -60 146 -139
c0 -21 -4 -51 -9 -84l-47 -286h-73l48 285c5 29 8 58 8 70c0 56 -36 93 -92 93c-49 0 -93 -29 -127 -83c-25 -41 -42 -93 -58 -188l-30 -177h-71z" />
    <glyph glyph-name="oacute" unicode="&#xf3;" horiz-adv-x="521" 
d="M296 570l-21 39l187 112l30 -59zM37 214c0 162 111 293 249 293c120 0 198 -88 198 -225c0 -166 -110 -297 -248 -297c-120 0 -199 91 -199 229zM119 195c0 -94 45 -149 121 -149c47 0 87 23 113 65c31 50 50 120 50 187c0 47 -7 78 -25 102c-21 29 -57 47 -96 47
c-47 0 -88 -24 -115 -67c-30 -50 -48 -119 -48 -185z" />
    <glyph glyph-name="ocircumflex" unicode="&#xf4;" horiz-adv-x="521" 
d="M158 583l181 127l136 -127l-71 -10l-77 67l-99 -67zM37 214c0 162 111 293 249 293c120 0 198 -88 198 -225c0 -166 -110 -297 -248 -297c-120 0 -199 91 -199 229zM119 195c0 -94 45 -149 121 -149c47 0 87 23 113 65c31 50 50 120 50 187c0 47 -7 78 -25 102
c-21 29 -57 47 -96 47c-47 0 -88 -24 -115 -67c-30 -50 -48 -119 -48 -185z" />
    <glyph glyph-name="odieresis" unicode="&#xf6;" horiz-adv-x="521" 
d="M411 587c-27 0 -50 23 -50 51s23 50 51 50c27 0 50 -23 50 -50c0 -28 -23 -51 -51 -51zM256 587c-28 0 -50 23 -50 50c0 28 22 50 50 50c27 0 50 -23 50 -50s-23 -50 -50 -50zM37 214c0 162 111 293 249 293c120 0 198 -88 198 -225c0 -166 -110 -297 -248 -297
c-120 0 -199 91 -199 229zM119 195c0 -94 45 -149 121 -149c47 0 87 23 113 65c31 50 50 120 50 187c0 47 -7 78 -25 102c-21 29 -57 47 -96 47c-47 0 -88 -24 -115 -67c-30 -50 -48 -119 -48 -185z" />
    <glyph glyph-name="ograve" unicode="&#xf2;" horiz-adv-x="521" 
d="M354 570l-189 92l30 59l180 -112zM37 214c0 162 111 293 249 293c120 0 198 -88 198 -225c0 -166 -110 -297 -248 -297c-120 0 -199 91 -199 229zM119 195c0 -94 45 -149 121 -149c47 0 87 23 113 65c31 50 50 120 50 187c0 47 -7 78 -25 102c-21 29 -57 47 -96 47
c-47 0 -88 -24 -115 -67c-30 -50 -48 -119 -48 -185z" />
    <glyph glyph-name="otilde" unicode="&#xf5;" horiz-adv-x="521" 
d="M217 593l-41 29c29 41 65 62 108 62c23 0 23 0 85 -26c13 -6 28 -9 43 -9c22 0 36 6 58 25l37 -35c-38 -37 -61 -49 -98 -49c-24 0 -24 0 -84 27c-14 6 -29 9 -44 9c-27 0 -43 -9 -64 -33zM37 214c0 162 111 293 249 293c120 0 198 -88 198 -225
c0 -166 -110 -297 -248 -297c-120 0 -199 91 -199 229zM119 195c0 -94 45 -149 121 -149c47 0 87 23 113 65c31 50 50 120 50 187c0 47 -7 78 -25 102c-21 29 -57 47 -96 47c-47 0 -88 -24 -115 -67c-30 -50 -48 -119 -48 -185z" />
    <glyph glyph-name="scaron" unicode="&#x161;" horiz-adv-x="461" 
d="M243 567l-136 126l71 10l77 -66l99 66l70 -10zM-4 122l71 24c24 -66 73 -98 149 -98c69 0 115 34 115 85c0 22 -11 43 -27 54c-13 8 -35 16 -70 24l-26 6c-60 14 -85 24 -111 43c-30 22 -48 58 -48 96c0 88 74 149 179 149c95 0 162 -41 191 -116l-64 -27
c-21 55 -66 83 -129 83c-58 0 -99 -32 -99 -77c0 -25 13 -46 37 -56c16 -7 30 -11 66 -19l30 -7c55 -13 77 -21 100 -39c30 -24 47 -60 47 -101c0 -94 -80 -159 -194 -159c-109 0 -180 44 -217 135z" />
    <glyph glyph-name="uacute" unicode="&#xfa;" horiz-adv-x="543" 
d="M308 570l-21 39l187 112l30 -59zM357 0l20 120c-49 -93 -103 -133 -179 -133c-82 0 -137 56 -137 139c0 22 3 49 10 92l48 277h76l-50 -301c-7 -42 -9 -53 -9 -64c0 -48 32 -80 81 -80s90 28 129 89c31 48 45 89 58 166l32 190h71l-83 -495h-67z" />
    <glyph glyph-name="ucircumflex" unicode="&#xfb;" horiz-adv-x="543" 
d="M167 583l181 127l136 -127l-71 -10l-77 67l-99 -67zM357 0l20 120c-49 -93 -103 -133 -179 -133c-82 0 -137 56 -137 139c0 22 3 49 10 92l48 277h76l-50 -301c-7 -42 -9 -53 -9 -64c0 -48 32 -80 81 -80s90 28 129 89c31 48 45 89 58 166l32 190h71l-83 -495h-67z" />
    <glyph glyph-name="udieresis" unicode="&#xfc;" horiz-adv-x="543" 
d="M418 587c-27 0 -50 23 -50 51s23 50 51 50c27 0 50 -23 50 -50c0 -28 -23 -51 -51 -51zM263 587c-28 0 -50 23 -50 50c0 28 22 50 50 50c27 0 50 -23 50 -50s-23 -50 -50 -50zM357 0l20 120c-49 -93 -103 -133 -179 -133c-82 0 -137 56 -137 139c0 22 3 49 10 92l48 277
h76l-50 -301c-7 -42 -9 -53 -9 -64c0 -48 32 -80 81 -80s90 28 129 89c31 48 45 89 58 166l32 190h71l-83 -495h-67z" />
    <glyph glyph-name="ugrave" unicode="&#xf9;" horiz-adv-x="543" 
d="M370 570l-189 92l30 59l180 -112zM357 0l20 120c-49 -93 -103 -133 -179 -133c-82 0 -137 56 -137 139c0 22 3 49 10 92l48 277h76l-50 -301c-7 -42 -9 -53 -9 -64c0 -48 32 -80 81 -80s90 28 129 89c31 48 45 89 58 166l32 190h71l-83 -495h-67z" />
    <glyph glyph-name="yacute" unicode="&#xfd;" horiz-adv-x="425" 
d="M245 570l-21 39l187 112l30 -59zM-48 -171l11 67c20 -4 30 -5 43 -5c53 0 92 27 121 88l16 34l-103 482h78l80 -376l195 376h66l-271 -522c-31 -59 -46 -81 -72 -105c-31 -28 -69 -42 -115 -42c-15 0 -26 1 -49 3z" />
    <glyph glyph-name="ydieresis" unicode="&#xff;" horiz-adv-x="425" 
d="M351 587c-27 0 -50 23 -50 51s23 50 51 50c27 0 50 -23 50 -50c0 -28 -23 -51 -51 -51zM196 587c-28 0 -50 23 -50 50c0 28 22 50 50 50c27 0 50 -23 50 -50s-23 -50 -50 -50zM-48 -171l11 67c20 -4 30 -5 43 -5c53 0 92 27 121 88l16 34l-103 482h78l80 -376l195 376h66
l-271 -522c-31 -59 -46 -81 -72 -105c-31 -28 -69 -42 -115 -42c-15 0 -26 1 -49 3z" />
    <glyph glyph-name="zcaron" unicode="&#x17e;" horiz-adv-x="419" 
d="M273 567l-136 126l71 10l77 -66l99 66l70 -10zM-18 0l9 52l326 380h-253l10 63h356l-9 -51l-330 -382h277l-10 -62h-376z" />
    <glyph glyph-name="Dcroat" unicode="&#x110;" horiz-adv-x="648" 
d="M42 0l52 321h-67l10 60h66l46 286h185c105 0 161 -22 214 -83c48 -55 71 -126 71 -215c0 -112 -36 -213 -105 -285c-58 -62 -119 -84 -225 -84h-247zM135 68l134 -1h4c112 0 176 34 223 125c26 52 41 117 41 183c0 72 -17 129 -50 169c-35 42 -86 61 -163 60l-104 -1
l-35 -222h159l-10 -60h-159z" />
    <glyph glyph-name="Eng" unicode="&#x14a;" horiz-adv-x="655" 
d="M42 0l112 667h91l242 -532l89 532h66l-95 -564c-24 -135 -49 -250 -218 -250c-30 0 -34 1 -66 6l11 65c42 -7 95 -10 137 20c20 15 34 38 44 77l-252 549l-95 -570h-66z" />
    <glyph glyph-name="Hbar" unicode="&#x126;" horiz-adv-x="656" 
d="M42 0l84 505h-63l10 60h64l17 102h81l-17 -102h327l17 102h81l-17 -102h63l-10 -60h-63l-85 -505h-81l53 315h-327l-53 -315h-81zM188 386h327l19 119h-326z" />
    <glyph glyph-name="Tbar" unicode="&#x166;" horiz-adv-x="488" 
d="M162 0l53 319h-118l9 63h120l36 217h-193l11 68h468l-11 -68h-193l-37 -217h112l-10 -63h-112l-54 -319h-81z" />
    <glyph glyph-name="dcroat" unicode="&#x111;" horiz-adv-x="538" 
d="M351 0l18 98c-53 -82 -97 -111 -170 -111c-100 0 -164 81 -164 209c0 59 16 125 45 179c46 87 111 132 191 132c67 0 115 -31 144 -93l23 141h-136l8 53h137l10 59h75l-10 -59h63l-9 -53h-63l-93 -555h-69zM115 184c0 -84 40 -136 104 -136c94 0 175 119 175 259
c0 42 -7 67 -26 92c-24 31 -57 48 -93 48c-49 0 -93 -32 -120 -86c-24 -50 -40 -120 -40 -177z" />
    <glyph glyph-name="eng" unicode="&#x14b;" horiz-adv-x="548" 
d="M35 0l83 495h66l-19 -110c46 84 102 124 175 124c83 0 146 -60 146 -139c0 -21 -4 -51 -9 -84l-34 -203c-18 -100 -29 -196 -161 -196c-16 0 -24 1 -53 5l10 56c26 -3 28 -3 38 -3c42 0 74 18 80 55l48 285c5 29 8 58 8 70c0 56 -36 93 -92 93c-49 0 -93 -29 -127 -83
c-25 -41 -42 -93 -58 -188l-30 -177h-71z" />
    <glyph glyph-name="hbar" unicode="&#x127;" horiz-adv-x="545" 
d="M35 0l93 555h-64l9 53h64l10 59h76l-10 -59h136l-9 -53h-136l-26 -152c51 75 99 106 166 106c83 0 141 -55 141 -134c0 -14 -3 -44 -8 -71l-51 -304h-75l51 304c4 23 6 46 6 61c0 51 -33 84 -82 84c-51 0 -99 -37 -136 -103c-21 -39 -35 -81 -45 -143l-34 -203h-76z" />
    <glyph glyph-name="kgreenlandic" unicode="&#x138;" horiz-adv-x="490" 
d="M35 0l83 495h76l-42 -249l264 249h89l-190 -177l123 -318h-81l-104 267l-117 -116l-25 -151h-76z" />
    <glyph glyph-name="tbar" unicode="&#x167;" horiz-adv-x="307" 
d="M242 -6l-26 -3c-11 -1 -22 -2 -32 -2c-84 0 -124 35 -124 109c0 23 3 48 12 103l9 56h-56l5 53h60l21 125h-75l10 60h77l20 120l75 6l-21 -126h112l-10 -60h-112l-21 -125h59l-5 -53h-63l-15 -90c-4 -25 -7 -48 -7 -61c0 -35 23 -55 62 -55c14 0 32 0 52 3l15 2l-8 -61z
" />
    <glyph glyph-name="Euro" unicode="&#x20ac;" horiz-adv-x="621" 
d="M51 254l24 58h40c1 15 2 25 4 36h-58l24 58h45c42 169 155 274 295 274c68 0 133 -26 175 -70l-35 -81c-29 53 -82 84 -143 84c-97 0 -166 -70 -203 -207h294l-24 -57l-282 -1l-5 -36h270l-24 -58h-248c3 -49 12 -83 26 -111c29 -57 80 -89 141 -89c62 0 115 30 155 89
l-14 -118c-39 -24 -89 -38 -141 -38c-142 0 -238 102 -251 267h-65z" />
    <glyph glyph-name="estimated" unicode="&#x212e;" horiz-adv-x="862" 
d="M685 130h101c-77 -95 -191 -143 -339 -143c-107 0 -201 31 -276 95c-76 65 -113 148 -113 251c0 105 37 186 113 250c75 62 172 97 282 97c115 0 205 -36 278 -102c73 -67 107 -154 107 -262h-616v-186c57 -68 136 -102 233 -102s174 35 230 102zM222 357h460v171
c-54 73 -132 109 -234 109c-100 0 -176 -36 -226 -109v-171z" />
    <glyph glyph-name="one.superior" unicode="&#xb9;" horiz-adv-x="387" 
d="M83 266l7 45h108l48 289c-23 -24 -75 -42 -121 -42l8 46c70 9 113 31 141 72h40l-61 -365h113l-7 -45h-276z" />
    <glyph glyph-name="two.superior" unicode="&#xb2;" horiz-adv-x="387" 
d="M47 266l9 54c213 126 273 178 273 235c0 44 -39 78 -89 78c-31 0 -61 -14 -77 -37c-10 -13 -15 -23 -28 -55l-47 17c28 81 79 122 153 122c82 0 146 -56 146 -126c0 -75 -57 -128 -262 -239h230l-8 -49h-300z" />
    <glyph glyph-name="three.superior" unicode="&#xb3;" horiz-adv-x="387" 
d="M148 570l-44 23c32 56 78 83 141 83c77 0 135 -46 135 -108c0 -46 -25 -75 -84 -94c40 -13 67 -52 67 -94c0 -69 -66 -123 -152 -123c-77 0 -135 38 -160 104l48 17c24 -52 58 -76 110 -76c55 0 96 34 96 79c0 38 -25 64 -69 70c-12 2 -16 2 -73 2l8 46
c29 -1 30 -1 42 -1c30 0 50 2 67 8c26 9 44 35 44 61c0 37 -35 66 -81 66c-42 0 -71 -19 -95 -63z" />
    <glyph glyph-name="at.cap" unicode="&#xf633;" horiz-adv-x="747" 
d="M618 99l23 -53c-83 -42 -150 -59 -235 -59c-75 0 -142 17 -196 49c-99 59 -159 171 -159 294c0 200 148 351 346 351c95 0 187 -37 246 -99c48 -50 74 -118 74 -196c0 -131 -78 -245 -168 -245c-44 0 -73 20 -87 62c-36 -47 -65 -64 -108 -64c-85 0 -148 75 -148 176
c0 113 76 201 173 201c50 0 77 -15 109 -60l9 52h61l-37 -227c-3 -19 -5 -36 -5 -49c0 -20 12 -31 33 -31c56 0 109 87 109 178c0 141 -115 245 -269 245c-157 0 -277 -126 -277 -291c0 -105 50 -198 134 -248c43 -26 99 -40 161 -40c77 0 132 14 211 54zM362 201
c57 0 108 70 108 148c0 61 -36 105 -88 105c-58 0 -104 -61 -104 -139c0 -66 35 -114 84 -114z" />
    <glyph glyph-name="lessequal" unicode="&#x2264;" 
d="M92 346v65l433 197v-71l-353 -159l353 -158v-71zM92 52v68h433v-68h-433z" />
    <glyph glyph-name="greaterequal" unicode="&#x2265;" 
d="M92 149v71l353 159l-353 158v71l433 -197v-65zM92 52v68h433v-68h-433z" />
    <glyph glyph-name="approxequal" unicode="&#x2248;" 
d="M107 343c-8 0 -24 12 -39 30c39 83 78 116 137 116c28 0 64 -11 112 -34c47 -22 74 -31 97 -31c34 0 72 25 84 56c4 9 6 12 11 12c8 0 24 -11 40 -28c-21 -40 -36 -61 -56 -80s-55 -33 -82 -33c-31 0 -59 9 -124 40c-34 16 -67 26 -89 26c-30 0 -68 -30 -80 -62
c-3 -9 -6 -12 -11 -12zM107 174c-8 0 -24 12 -39 30c39 83 78 116 137 116c28 0 64 -11 112 -34c47 -22 74 -31 97 -31c34 0 72 25 84 56c4 9 6 12 11 12c8 0 24 -11 40 -28c-21 -40 -36 -61 -56 -80s-55 -33 -82 -33c-31 0 -59 9 -124 40c-34 16 -67 26 -89 26
c-30 0 -68 -30 -80 -62c-3 -9 -6 -12 -11 -12z" />
    <glyph glyph-name="notequal" unicode="&#x2260;" 
d="M181 126l44 92h-133v68h164l44 90h-208v68h238l55 112l51 -21l-44 -91h133v-68h-164l-43 -90h207v-68h-238l-55 -113z" />
    <glyph glyph-name="infinity" unicode="&#x221e;" horiz-adv-x="667" 
d="M184 187c-88 0 -150 64 -150 155c0 87 64 152 151 152c62 0 114 -33 163 -103c48 71 100 103 166 103c88 0 150 -64 150 -155c0 -89 -62 -153 -150 -153c-64 0 -115 32 -163 104c-52 -72 -102 -103 -167 -103zM386 340c41 -62 75 -87 118 -87c48 0 84 37 84 88
c0 49 -36 86 -85 86c-41 0 -76 -26 -117 -87zM195 254c41 0 75 25 117 86c-43 64 -75 87 -119 87c-47 0 -83 -37 -83 -87c0 -49 36 -86 85 -86z" />
    <glyph glyph-name="lozenge" unicode="&#x25ca;" horiz-adv-x="667" 
d="M334 -26l-260 359l260 360l259 -360zM334 63l197 270l-197 271l-197 -271z" />
    <glyph glyph-name="integral" unicode="&#x222b;" 
d="M168 -173c20 -8 31 -11 46 -11c20 0 40 10 47 23c8 15 10 31 10 99v611c0 97 2 117 17 147c17 34 59 55 109 55c22 0 37 -3 69 -11l-17 -67c-19 8 -30 11 -45 11c-30 0 -49 -15 -54 -44c-2 -13 -3 -16 -3 -112v-577c0 -97 -2 -119 -17 -147c-18 -34 -59 -55 -106 -55
c-23 0 -44 3 -72 11z" />
    <glyph glyph-name="partialdiff" unicode="&#x2202;" 
d="M291 604l83 -68c70 -58 71 -57 92 -80c35 -39 50 -82 50 -146c0 -87 -26 -175 -70 -232c-45 -60 -110 -91 -188 -91c-60 0 -107 17 -137 49c-31 33 -50 85 -50 138c0 103 41 201 106 254c42 35 88 50 149 50h13l-150 126l11 63h324l-10 -63h-223zM154 173
c0 -79 40 -125 109 -125c57 0 104 32 132 89c21 43 36 115 36 176c0 79 -40 127 -105 127c-100 0 -172 -112 -172 -267z" />
    <glyph glyph-name="product" unicode="&#x220f;" horiz-adv-x="667" 
d="M28 -183l144 866h-79l11 67h627l-11 -67h-79l-145 -866h79l-11 -67h-237l11 67h82l145 866h-317l-145 -866h81l-11 -67h-236l11 67h80z" />
    <glyph glyph-name="radical" unicode="&#x221a;" 
d="M165 0l-81 298h-84v67h145l63 -266l199 728h260v-67h-196l-214 -760h-92z" />
    <glyph glyph-name="summation" unicode="&#x2211;" horiz-adv-x="667" 
d="M-43 -174l322 444l-180 405l12 75h571l-38 -227h-68l20 160h-412l183 -414l-329 -452h423l31 160h71l-38 -227h-581z" />
    <glyph glyph-name="Delta" unicode="&#x2206;" 
d="M-14 0l327 667h100l114 -667h-541zM97 71h335l-77 527h-7z" />
    <glyph glyph-name="Omega" unicode="&#x2126;" 
d="M-27 0l12 71h159c-83 69 -114 136 -114 243c0 210 127 366 300 366c142 0 233 -101 233 -259c0 -82 -19 -162 -53 -223c-30 -54 -64 -87 -130 -127h164l-12 -71h-244l12 71c71 47 105 85 134 148c27 59 42 130 42 197c0 121 -58 197 -151 197c-124 0 -209 -126 -209 -310
c0 -106 30 -170 109 -232l-12 -71h-240z" />
    <glyph glyph-name="pi" unicode="&#x3c0;" 
d="M74 0l72 432h-62l10 63h481l-10 -63h-63l-72 -432h-76l72 432h-204l-72 -432h-76z" />
    <glyph glyph-name="Abreve" unicode="&#x102;" horiz-adv-x="564" 
d="M465 855h55c-28 -82 -78 -118 -164 -118c-84 0 -121 35 -124 118h54c3 -44 26 -63 77 -63c53 0 77 15 102 63zM-28 0l326 667h93l116 -667h-86l-34 195h-243l-96 -195h-76zM175 262h202l-52 307z" />
    <glyph glyph-name="Amacron" unicode="&#x100;" horiz-adv-x="564" 
d="M199 757l9 53h313l-9 -53h-313zM-28 0l326 667h93l116 -667h-86l-34 195h-243l-96 -195h-76zM175 262h202l-52 307z" />
    <glyph glyph-name="Aogonek" unicode="&#x104;" horiz-adv-x="564" 
d="M-28 0l326 667h93l116 -667c-55 -31 -75 -53 -75 -83c0 -27 17 -41 52 -41c15 0 26 2 44 7l5 -34c-26 -12 -48 -17 -75 -17c-55 0 -87 24 -87 67c0 44 28 77 87 101h-37l-34 195h-243l-96 -195h-76zM175 262h202l-52 307z" />
    <glyph glyph-name="Cacute" unicode="&#x106;" horiz-adv-x="576" 
d="M394 723l-25 38l148 113l33 -51zM478 213l67 -26c-49 -130 -134 -198 -249 -198c-49 0 -96 13 -130 36c-71 47 -113 142 -113 253c0 86 25 178 67 252c58 100 142 154 240 154c75 0 143 -33 184 -89c24 -33 36 -68 45 -133l-73 -18c-6 48 -14 76 -28 102
c-25 45 -73 71 -128 71c-61 0 -116 -33 -150 -90c-43 -71 -71 -176 -71 -262c0 -129 61 -209 159 -209c49 0 95 24 131 69c16 20 29 45 49 88z" />
    <glyph glyph-name="Ccaron" unicode="&#x10c;" horiz-adv-x="576" 
d="M388 727l-137 120l71 10l78 -60l98 60l70 -10zM478 213l67 -26c-49 -130 -134 -198 -249 -198c-49 0 -96 13 -130 36c-71 47 -113 142 -113 253c0 86 25 178 67 252c58 100 142 154 240 154c75 0 143 -33 184 -89c24 -33 36 -68 45 -133l-73 -18c-6 48 -14 76 -28 102
c-25 45 -73 71 -128 71c-61 0 -116 -33 -150 -90c-43 -71 -71 -176 -71 -262c0 -129 61 -209 159 -209c49 0 95 24 131 69c16 20 29 45 49 88z" />
    <glyph glyph-name="Ccircumflex" unicode="&#x108;" horiz-adv-x="576" 
d="M232 743l180 120l137 -120l-71 -10l-78 60l-98 -60zM478 213l67 -26c-49 -130 -134 -198 -249 -198c-49 0 -96 13 -130 36c-71 47 -113 142 -113 253c0 86 25 178 67 252c58 100 142 154 240 154c75 0 143 -33 184 -89c24 -33 36 -68 45 -133l-73 -18
c-6 48 -14 76 -28 102c-25 45 -73 71 -128 71c-61 0 -116 -33 -150 -90c-43 -71 -71 -176 -71 -262c0 -129 61 -209 159 -209c49 0 95 24 131 69c16 20 29 45 49 88z" />
    <glyph glyph-name="Cdotaccent" unicode="&#x10a;" horiz-adv-x="576" 
d="M399 743c-28 0 -52 24 -52 53s24 52 53 52c28 0 52 -24 52 -52c0 -29 -24 -53 -53 -53zM478 213l67 -26c-49 -130 -134 -198 -249 -198c-49 0 -96 13 -130 36c-71 47 -113 142 -113 253c0 86 25 178 67 252c58 100 142 154 240 154c75 0 143 -33 184 -89
c24 -33 36 -68 45 -133l-73 -18c-6 48 -14 76 -28 102c-25 45 -73 71 -128 71c-61 0 -116 -33 -150 -90c-43 -71 -71 -176 -71 -262c0 -129 61 -209 159 -209c49 0 95 24 131 69c16 20 29 45 49 88z" />
    <glyph glyph-name="Dcaron" unicode="&#x10e;" horiz-adv-x="648" 
d="M369 727l-138 120l71 10l79 -60l97 60l70 -10zM42 0l112 667h184c105 0 161 -22 214 -83c46 -54 69 -124 69 -211c0 -114 -38 -215 -107 -288c-59 -62 -120 -85 -226 -85h-246zM135 68l134 -1h4c112 0 176 35 223 125c28 53 43 120 43 187c0 70 -17 126 -49 165
c-35 42 -85 61 -162 60l-104 -1z" />
    <glyph glyph-name="Ecaron" unicode="&#x11a;" horiz-adv-x="559" 
d="M375 727l-137 120l71 10l78 -60l98 60l70 -10zM42 0l112 667h415l-11 -66h-334l-37 -220h286l-11 -66h-286l-41 -244h361l-12 -71h-442z" />
    <glyph glyph-name="Edotaccent" unicode="&#x116;" horiz-adv-x="559" 
d="M382 743c-28 0 -52 24 -52 53s24 52 53 52c28 0 52 -24 52 -52c0 -29 -24 -53 -53 -53zM42 0l112 667h415l-11 -66h-334l-37 -220h286l-11 -66h-286l-41 -244h361l-12 -71h-442z" />
    <glyph glyph-name="Emacron" unicode="&#x112;" horiz-adv-x="559" 
d="M220 757l9 53h314l-9 -53h-314zM42 0l112 667h415l-11 -66h-334l-37 -220h286l-11 -66h-286l-41 -244h361l-12 -71h-442z" />
    <glyph glyph-name="Eogonek" unicode="&#x118;" horiz-adv-x="559" 
d="M42 0l112 667h415l-11 -66h-334l-37 -220h286l-11 -66h-286l-41 -244h361l-12 -71c-56 -31 -75 -52 -75 -83c0 -27 17 -41 52 -41c15 0 26 2 43 7l6 -34c-26 -12 -48 -17 -75 -17c-55 0 -87 24 -87 67c0 44 28 77 87 101h-393z" />
    <glyph glyph-name="Gbreve" unicode="&#x11e;" horiz-adv-x="651" 
d="M502 855h55c-28 -82 -78 -118 -164 -118c-84 0 -121 35 -123 118h53c3 -44 26 -63 77 -63c53 0 77 15 102 63zM494 -8l-10 81c-43 -62 -97 -90 -176 -90c-150 0 -253 122 -253 300c0 89 25 181 68 252c59 98 142 149 243 149c78 0 146 -30 191 -84c24 -29 39 -57 55 -106
l-72 -25c-30 99 -89 150 -174 150c-78 0 -143 -49 -183 -137c-27 -60 -43 -137 -43 -207c0 -139 68 -227 175 -227c68 0 125 38 159 107c14 28 23 57 32 113h-174l11 65h253l-57 -341h-45z" />
    <glyph glyph-name="Gcircumflex" unicode="&#x11c;" horiz-adv-x="651" 
d="M224 743l180 120l137 -120l-71 -10l-78 60l-98 -60zM494 -8l-10 81c-43 -62 -97 -90 -176 -90c-150 0 -253 122 -253 300c0 89 25 181 68 252c59 98 142 149 243 149c78 0 146 -30 191 -84c24 -29 39 -57 55 -106l-72 -25c-30 99 -89 150 -174 150
c-78 0 -143 -49 -183 -137c-27 -60 -43 -137 -43 -207c0 -139 68 -227 175 -227c68 0 125 38 159 107c14 28 23 57 32 113h-174l11 65h253l-57 -341h-45z" />
    <glyph glyph-name="Gcommaaccent" unicode="&#x122;" horiz-adv-x="651" 
d="M494 -8l-10 81c-43 -62 -97 -90 -176 -90c-150 0 -253 122 -253 300c0 89 25 181 68 252c59 98 142 149 243 149c78 0 146 -30 191 -84c24 -29 39 -57 55 -106l-72 -25c-30 99 -89 150 -174 150c-78 0 -143 -49 -183 -137c-27 -60 -43 -137 -43 -207
c0 -139 68 -227 175 -227c68 0 125 38 159 107c14 28 23 57 32 113h-174l11 65h253l-57 -341h-45zM258 -53h80l-103 -179h-33z" />
    <glyph glyph-name="Gdotaccent" unicode="&#x120;" horiz-adv-x="651" 
d="M401 743c-28 0 -52 24 -52 53s24 52 53 52c28 0 52 -24 52 -52c0 -29 -24 -53 -53 -53zM494 -8l-10 81c-43 -62 -97 -90 -176 -90c-150 0 -253 122 -253 300c0 89 25 181 68 252c59 98 142 149 243 149c78 0 146 -30 191 -84c24 -29 39 -57 55 -106l-72 -25
c-30 99 -89 150 -174 150c-78 0 -143 -49 -183 -137c-27 -60 -43 -137 -43 -207c0 -139 68 -227 175 -227c68 0 125 38 159 107c14 28 23 57 32 113h-174l11 65h253l-57 -341h-45z" />
    <glyph glyph-name="Hcircumflex" unicode="&#x124;" horiz-adv-x="656" 
d="M249 743l180 120l137 -120l-71 -10l-78 60l-98 -60zM42 0l112 667h81l-47 -281h327l47 281h81l-112 -667h-81l53 315h-327l-53 -315h-81z" />
    <glyph glyph-name="Idotaccent" unicode="&#x130;" horiz-adv-x="248" 
d="M217 743c-28 0 -52 24 -52 53s24 52 53 52c28 0 52 -24 52 -52c0 -29 -24 -53 -53 -53zM42 0l112 667h81l-112 -667h-81z" />
    <glyph glyph-name="Imacron" unicode="&#x12a;" horiz-adv-x="248" 
d="M104 757l9 53h213l-9 -53h-213zM42 0l112 667h81l-112 -667h-81z" />
    <glyph glyph-name="Iogonek" unicode="&#x12e;" horiz-adv-x="248" 
d="M42 0l112 667h81l-112 -667c-41 -25 -61 -52 -61 -83c0 -26 16 -41 43 -41c9 0 19 2 39 7l6 -34c-29 -13 -45 -17 -69 -17c-51 0 -80 24 -80 66c0 46 25 78 77 102h-36z" />
    <glyph glyph-name="Itilde" unicode="&#x128;" horiz-adv-x="248" 
d="M89 749l-40 29c28 41 65 62 108 62c23 0 23 0 84 -26c14 -6 29 -9 44 -9c22 0 36 6 57 26l37 -36c-38 -38 -60 -49 -97 -49c-24 0 -24 0 -84 27c-14 6 -29 9 -44 9c-27 0 -43 -8 -65 -33zM42 0l112 667h81l-112 -667h-81z" />
    <glyph glyph-name="Jcircumflex" unicode="&#x134;" horiz-adv-x="369" 
d="M176 743l180 120l137 -120l-70 -10l-79 60l-98 -60zM-41 0l11 68c28 -5 46 -7 74 -7c41 0 76 10 103 29c30 22 44 54 59 144l72 433h85l-69 -412c-22 -129 -38 -170 -83 -212c-36 -33 -93 -53 -152 -53c-32 0 -67 4 -100 10z" />
    <glyph glyph-name="Kcommaaccent" unicode="&#x136;" horiz-adv-x="623" 
d="M42 0l112 667h81l-64 -380l367 380h93l-226 -233l158 -434h-85l-135 376l-189 -194l-31 -182h-81zM238 -53h80l-103 -179h-33z" />
    <glyph glyph-name="Lacute" unicode="&#x139;" horiz-adv-x="347" 
d="M206 724l-24 38l147 113l33 -51zM42 0l112 667h81l-100 -596h331l-12 -71h-412z" />
    <glyph glyph-name="Lcaron" unicode="&#x13d;" horiz-adv-x="509" 
d="M42 0l112 667h81l-100 -596h331l-12 -71h-412zM302 481l56 186h80l-103 -186h-33z" />
    <glyph glyph-name="Lcommaaccent" unicode="&#x13b;" horiz-adv-x="509" 
d="M42 0l112 667h81l-100 -596h331l-12 -71h-412zM208 -53h80l-103 -179h-33z" />
    <glyph glyph-name="Nacute" unicode="&#x143;" horiz-adv-x="655" 
d="M398 724l-24 38l147 113l33 -51zM42 0l112 667h91l242 -532l89 532h66l-112 -667h-65l-262 570l-95 -570h-66z" />
    <glyph glyph-name="Ncaron" unicode="&#x147;" horiz-adv-x="655" 
d="M419 727l-138 120l71 10l79 -60l97 60l70 -10zM42 0l112 667h91l242 -532l89 532h66l-112 -667h-65l-262 570l-95 -570h-66z" />
    <glyph glyph-name="Ncommaaccent" unicode="&#x145;" horiz-adv-x="655" 
d="M42 0l112 667h91l242 -532l89 532h66l-112 -667h-65l-262 570l-95 -570h-66zM241 -53h80l-103 -179h-33z" />
    <glyph glyph-name="Ohungarumlaut" unicode="&#x150;" horiz-adv-x="642" 
d="M476 730l-24 38l147 106l33 -50zM316 730l-24 38l147 106l33 -50zM55 286c0 82 23 170 63 239c58 101 145 155 247 155c154 0 253 -115 253 -293c0 -74 -19 -156 -50 -220c-58 -119 -146 -180 -260 -180c-152 0 -253 119 -253 299zM141 269c0 -132 65 -215 167 -215
c92 0 163 67 200 189c13 44 25 122 25 166c0 123 -68 204 -171 204c-86 0 -152 -58 -190 -167c-19 -54 -31 -121 -31 -177z" />
    <glyph glyph-name="Omacron" unicode="&#x14c;" horiz-adv-x="642" 
d="M251 757l9 53h313l-9 -53h-313zM55 286c0 82 23 170 63 239c58 101 145 155 247 155c154 0 253 -115 253 -293c0 -74 -19 -156 -50 -220c-58 -119 -146 -180 -260 -180c-152 0 -253 119 -253 299zM141 269c0 -132 65 -215 167 -215c92 0 163 67 200 189
c13 44 25 122 25 166c0 123 -68 204 -171 204c-86 0 -152 -58 -190 -167c-19 -54 -31 -121 -31 -177z" />
    <glyph glyph-name="Racute" unicode="&#x154;" horiz-adv-x="633" 
d="M340 724l-24 38l147 113l33 -51zM42 0l112 667h208c79 0 123 -8 159 -29c52 -31 82 -85 82 -148c0 -94 -61 -166 -155 -183l94 -307h-86l-87 292h-197l-49 -292h-81zM183 359h153c70 0 112 10 143 35c25 21 41 59 41 98c0 73 -48 110 -143 110h-153z" />
    <glyph glyph-name="Rcaron" unicode="&#x158;" horiz-adv-x="633" 
d="M379 727l-138 120l71 10l79 -60l97 60l70 -10zM42 0l112 667h208c79 0 123 -8 159 -29c52 -31 82 -85 82 -148c0 -94 -61 -166 -155 -183l94 -307h-86l-87 292h-197l-49 -292h-81zM183 359h153c70 0 112 10 143 35c25 21 41 59 41 98c0 73 -48 110 -143 110h-153z" />
    <glyph glyph-name="Rcommaaccent" unicode="&#x156;" horiz-adv-x="633" 
d="M42 0l112 667h208c79 0 123 -8 159 -29c52 -31 82 -85 82 -148c0 -94 -61 -166 -155 -183l94 -307h-86l-87 292h-197l-49 -292h-81zM183 359h153c70 0 112 10 143 35c25 21 41 59 41 98c0 73 -48 110 -143 110h-153zM231 -53h80l-103 -179h-33z" />
    <glyph glyph-name="Sacute" unicode="&#x15a;" horiz-adv-x="572" 
d="M335 724l-25 38l148 113l33 -51zM544 528l-70 -27c-30 79 -90 121 -175 121c-84 0 -140 -47 -140 -117c0 -30 13 -57 36 -73c27 -19 27 -20 115 -42c82 -21 115 -32 141 -49c51 -33 78 -83 78 -146c0 -126 -100 -209 -254 -209c-74 0 -141 21 -190 59
c-36 28 -60 64 -81 126l73 27c17 -48 30 -71 51 -92c35 -34 88 -53 149 -53c99 0 169 55 169 133c0 41 -20 74 -57 92c-21 11 -27 13 -101 30c-63 15 -106 31 -139 53c-46 29 -72 79 -72 136c0 111 90 188 220 188c121 0 205 -53 247 -157z" />
    <glyph glyph-name="Scedilla" unicode="&#x15e;" horiz-adv-x="572" 
d="M4 171l73 27c17 -48 30 -71 51 -92c35 -34 88 -53 149 -53c99 0 169 55 169 133c0 41 -20 74 -57 92c-21 11 -27 13 -101 30c-63 15 -106 31 -139 53c-46 29 -72 79 -72 136c0 111 90 188 220 188c121 0 205 -53 247 -157l-70 -27c-30 79 -90 121 -175 121
c-84 0 -140 -47 -140 -117c0 -30 13 -57 36 -73c27 -19 27 -20 115 -42c82 -21 115 -32 141 -49c51 -34 78 -83 78 -146c0 -126 -100 -209 -253 -209h-9l-16 -38c9 1 15 1 20 1c45 0 80 -28 80 -66c0 -50 -46 -84 -115 -84c-35 0 -60 7 -92 24l17 35c30 -14 48 -19 72 -19
c38 0 62 16 62 41c0 24 -20 35 -63 35c-10 0 -19 -1 -37 -3l34 77c-121 17 -191 74 -225 182z" />
    <glyph glyph-name="Scircumflex" unicode="&#x15c;" horiz-adv-x="572" 
d="M162 743l180 120l137 -120l-70 -10l-79 60l-98 -60zM544 528l-70 -27c-30 79 -90 121 -175 121c-84 0 -140 -47 -140 -117c0 -30 13 -57 36 -73c27 -19 27 -20 115 -42c82 -21 115 -32 141 -49c51 -33 78 -83 78 -146c0 -126 -100 -209 -254 -209c-74 0 -141 21 -190 59
c-36 28 -60 64 -81 126l73 27c17 -48 30 -71 51 -92c35 -34 88 -53 149 -53c99 0 169 55 169 133c0 41 -20 74 -57 92c-21 11 -27 13 -101 30c-63 15 -106 31 -139 53c-46 29 -72 79 -72 136c0 111 90 188 220 188c121 0 205 -53 247 -157z" />
    <glyph glyph-name="Scommaaccent" unicode="&#x218;" horiz-adv-x="572" 
d="M544 528l-70 -27c-30 79 -90 121 -175 121c-84 0 -140 -47 -140 -117c0 -30 13 -57 36 -73c27 -19 27 -20 115 -42c82 -21 115 -32 141 -49c51 -33 78 -83 78 -146c0 -126 -100 -209 -254 -209c-74 0 -141 21 -190 59c-36 28 -60 64 -81 126l73 27c17 -48 30 -71 51 -92
c35 -34 88 -53 149 -53c99 0 169 55 169 133c0 41 -20 74 -57 92c-21 11 -27 13 -101 30c-63 15 -106 31 -139 53c-46 29 -72 79 -72 136c0 111 90 188 220 188c121 0 205 -53 247 -157zM171 -53h77l-101 -174h-31z" />
    <glyph glyph-name="Tcaron" unicode="&#x164;" horiz-adv-x="488" 
d="M322 727l-137 120l70 10l79 -60l98 60l70 -10zM162 0l100 599h-193l11 68h468l-11 -68h-193l-101 -599h-81z" />
    <glyph glyph-name="Tcommaaccent" unicode="&#x162;" horiz-adv-x="488" 
d="M162 0l100 599h-193l11 68h468l-11 -68h-193l-101 -599h-81zM151 -53h80l-103 -179h-33z" />
    <glyph glyph-name="Ubreve" unicode="&#x16c;" horiz-adv-x="615" 
d="M511 855h55c-28 -82 -79 -118 -164 -118c-84 0 -121 35 -124 118h54c3 -44 26 -63 77 -63c53 0 77 15 102 63zM611 667l-67 -406c-20 -121 -43 -175 -88 -217c-41 -38 -102 -59 -171 -59c-137 0 -220 70 -220 187c0 24 1 31 17 126l61 369h82l-65 -387
c-13 -78 -14 -78 -14 -103c0 -76 56 -125 143 -125c51 0 98 17 127 47c31 31 44 66 59 154l69 414h67z" />
    <glyph glyph-name="Uhungarumlaut" unicode="&#x170;" horiz-adv-x="615" 
d="M469 730l-25 38l148 106l33 -50zM309 730l-25 38l148 106l33 -50zM611 667l-67 -406c-20 -121 -43 -175 -88 -217c-41 -38 -102 -59 -171 -59c-137 0 -220 70 -220 187c0 24 1 31 17 126l61 369h82l-65 -387c-13 -78 -14 -78 -14 -103c0 -76 56 -125 143 -125
c51 0 98 17 127 47c31 31 44 66 59 154l69 414h67z" />
    <glyph glyph-name="Umacron" unicode="&#x16a;" horiz-adv-x="615" 
d="M241 757l9 53h314l-9 -53h-314zM611 667l-67 -406c-20 -121 -43 -175 -88 -217c-41 -38 -102 -59 -171 -59c-137 0 -220 70 -220 187c0 24 1 31 17 126l61 369h82l-65 -387c-13 -78 -14 -78 -14 -103c0 -76 56 -125 143 -125c51 0 98 17 127 47c31 31 44 66 59 154
l69 414h67z" />
    <glyph glyph-name="Uogonek" unicode="&#x172;" horiz-adv-x="615" 
d="M447 -114l5 -34c-25 -12 -47 -17 -75 -17c-55 0 -86 24 -86 67c0 37 20 66 63 91c-26 -6 -42 -8 -67 -8c-139 0 -222 70 -222 187c0 24 1 31 17 126l61 369h82l-65 -387c-14 -85 -15 -85 -15 -100c0 -77 56 -127 143 -127c52 0 99 17 128 47c31 31 44 66 59 153l69 414
h67l-67 -406c-25 -154 -44 -185 -135 -259c-43 -36 -57 -56 -57 -82c0 -27 17 -41 52 -41c15 0 25 2 43 7z" />
    <glyph glyph-name="Uring" unicode="&#x16e;" horiz-adv-x="615" 
d="M406 711c-49 0 -89 40 -89 88c0 49 40 88 90 88c47 0 86 -40 86 -89c0 -48 -39 -87 -87 -87zM406 754c24 0 43 20 43 44c0 25 -19 45 -43 45c-25 0 -45 -20 -45 -44c0 -25 20 -45 45 -45zM611 667l-67 -406c-20 -121 -43 -175 -88 -217c-41 -38 -102 -59 -171 -59
c-137 0 -220 70 -220 187c0 24 1 31 17 126l61 369h82l-65 -387c-13 -78 -14 -78 -14 -103c0 -76 56 -125 143 -125c51 0 98 17 127 47c31 31 44 66 59 154l69 414h67z" />
    <glyph glyph-name="Utilde" unicode="&#x168;" horiz-adv-x="615" 
d="M267 749l-40 29c28 41 65 62 108 62c23 0 23 0 84 -26c14 -6 29 -9 44 -9c22 0 36 6 57 26l37 -36c-38 -38 -60 -49 -97 -49c-24 0 -24 0 -84 27c-14 6 -29 9 -44 9c-27 0 -43 -8 -65 -33zM611 667l-67 -406c-20 -121 -43 -175 -88 -217c-41 -38 -102 -59 -171 -59
c-137 0 -220 70 -220 187c0 24 1 31 17 126l61 369h82l-65 -387c-13 -78 -14 -78 -14 -103c0 -76 56 -125 143 -125c51 0 98 17 127 47c31 31 44 66 59 154l69 414h67z" />
    <glyph glyph-name="Wcircumflex" unicode="&#x174;" horiz-adv-x="812" 
d="M146 0l-65 667h82l53 -551l225 551h62l69 -551l222 551h69l-270 -667h-82l-64 532l-214 -532h-87zM321 743l180 120l137 -120l-71 -10l-78 60l-98 -60z" />
    <glyph glyph-name="Ycircumflex" unicode="&#x176;" horiz-adv-x="512" 
d="M175 0l47 279l-170 388h90l138 -316l230 316h82l-286 -388l-47 -279h-84zM176 743l180 120l137 -120l-71 -10l-78 60l-98 -60z" />
    <glyph glyph-name="Zacute" unicode="&#x179;" horiz-adv-x="525" 
d="M326 724l-24 38l147 113l33 -51zM-18 0l12 71l433 529h-334l11 67h444l-10 -55l-442 -541h376l-11 -71h-479z" />
    <glyph glyph-name="Zdotaccent" unicode="&#x17b;" horiz-adv-x="525" 
d="M350 743c-28 0 -52 24 -52 53s24 52 53 52c28 0 52 -24 52 -52c0 -29 -24 -53 -53 -53zM-18 0l12 71l433 529h-334l11 67h444l-10 -55l-442 -541h376l-11 -71h-479z" />
    <glyph glyph-name="abreve" unicode="&#x103;" horiz-adv-x="535" 
d="M433 702h56c-28 -86 -79 -125 -164 -125s-121 37 -124 125h54c3 -49 26 -70 77 -70c52 0 76 16 101 70zM428 0h-77c-1 12 -1 18 -1 25c0 27 2 44 9 72c-52 -76 -112 -111 -185 -111c-91 0 -158 62 -158 148c0 71 47 128 128 155c38 13 94 19 173 19c18 0 18 2 63 -2
l11 -1c4 28 5 38 5 53c0 60 -40 93 -114 93c-67 0 -109 -25 -142 -84l-73 31c38 73 112 113 209 113c117 0 199 -56 199 -135c0 -22 -3 -36 -38 -263c-7 -43 -10 -75 -10 -93c0 -2 0 -9 1 -20zM100 131c0 -50 34 -82 88 -82c57 0 112 34 152 93c21 31 32 60 42 107
c-40 2 -40 2 -67 2c-63 0 -111 -7 -143 -20c-47 -20 -72 -55 -72 -100z" />
    <glyph glyph-name="amacron" unicode="&#x101;" horiz-adv-x="535" 
d="M181 604l9 53h300l-9 -53h-300zM428 0h-77c-1 12 -1 18 -1 25c0 27 2 44 9 72c-52 -76 -112 -111 -185 -111c-91 0 -158 62 -158 148c0 71 47 128 128 155c38 13 94 19 173 19c18 0 18 2 63 -2l11 -1c4 28 5 38 5 53c0 60 -40 93 -114 93c-67 0 -109 -25 -142 -84l-73 31
c38 73 112 113 209 113c117 0 199 -56 199 -135c0 -22 -3 -36 -38 -263c-7 -43 -10 -75 -10 -93c0 -2 0 -9 1 -20zM100 131c0 -50 34 -82 88 -82c57 0 112 34 152 93c21 31 32 60 42 107c-40 2 -40 2 -67 2c-63 0 -111 -7 -143 -20c-47 -20 -72 -55 -72 -100z" />
    <glyph glyph-name="aogonek" unicode="&#x105;" horiz-adv-x="535" 
d="M419 -111l6 -33c-25 -11 -47 -16 -74 -16c-54 0 -85 23 -85 63c0 43 27 74 85 97c-1 12 -1 18 -1 25c0 27 2 44 9 72c-52 -76 -112 -111 -185 -111c-91 0 -158 62 -158 148c0 71 47 128 128 155c38 13 94 19 173 19c18 0 18 2 63 -2l11 -1c4 28 5 38 5 53
c0 60 -40 93 -114 93c-67 0 -109 -25 -142 -84l-73 31c38 73 112 113 209 113c117 0 199 -56 199 -135c0 -22 -3 -36 -38 -263c-7 -43 -10 -75 -10 -93c0 -2 0 -9 1 -20h-29l-8 -4c-46 -23 -65 -48 -65 -75c0 -26 17 -39 51 -39c14 0 25 2 42 7zM100 131
c0 -50 34 -82 88 -82c57 0 112 34 152 93c21 31 32 60 42 107c-30 2 -48 3 -65 3c-63 0 -114 -7 -145 -21c-47 -20 -72 -55 -72 -100z" />
    <glyph glyph-name="cacute" unicode="&#x107;" horiz-adv-x="474" 
d="M310 570l-25 38l148 113l32 -51zM367 170l62 -23c-35 -104 -110 -163 -206 -163c-114 0 -187 88 -187 225c0 66 16 129 48 183c45 77 111 119 190 119c100 0 175 -69 185 -174l-74 -16c-11 78 -53 123 -115 123c-48 0 -90 -29 -114 -79c-23 -48 -38 -113 -38 -170
c0 -89 43 -144 113 -144c59 0 101 36 136 119z" />
    <glyph glyph-name="ccaron" unicode="&#x10d;" horiz-adv-x="474" 
d="M303 567l-136 126l71 10l77 -66l99 66l70 -10zM367 170l62 -23c-35 -104 -110 -163 -206 -163c-114 0 -187 88 -187 225c0 66 16 129 48 183c45 77 111 119 190 119c100 0 175 -69 185 -174l-74 -16c-11 78 -53 123 -115 123c-48 0 -90 -29 -114 -79
c-23 -48 -38 -113 -38 -170c0 -89 43 -144 113 -144c59 0 101 36 136 119z" />
    <glyph glyph-name="ccircumflex" unicode="&#x109;" horiz-adv-x="474" 
d="M132 583l181 127l136 -127l-71 -10l-77 67l-99 -67zM367 170l62 -23c-35 -104 -110 -163 -206 -163c-114 0 -187 88 -187 225c0 66 16 129 48 183c45 77 111 119 190 119c100 0 175 -69 185 -174l-74 -16c-11 78 -53 123 -115 123c-48 0 -90 -29 -114 -79
c-23 -48 -38 -113 -38 -170c0 -89 43 -144 113 -144c59 0 101 36 136 119z" />
    <glyph glyph-name="cdotaccent" unicode="&#x10b;" horiz-adv-x="474" 
d="M308 587c-28 0 -52 24 -52 53s24 52 53 52c28 0 52 -24 52 -52c0 -29 -24 -53 -53 -53zM367 170l62 -23c-35 -104 -110 -163 -206 -163c-114 0 -187 88 -187 225c0 66 16 129 48 183c45 77 111 119 190 119c100 0 175 -69 185 -174l-74 -16c-11 78 -53 123 -115 123
c-48 0 -90 -29 -114 -79c-23 -48 -38 -113 -38 -170c0 -89 43 -144 113 -144c59 0 101 36 136 119z" />
    <glyph glyph-name="dcaron" unicode="&#x10f;" horiz-adv-x="615" 
d="M557 493l55 174h77l-101 -174h-31zM351 0l18 98c-53 -82 -97 -111 -171 -111c-99 0 -163 82 -163 209c0 59 16 125 45 179c46 87 111 132 191 132c67 0 115 -31 144 -93l42 253h75l-112 -667h-69zM115 184c0 -84 40 -136 104 -136c94 0 175 120 175 258
c0 43 -7 68 -26 93c-24 31 -56 48 -93 48c-49 0 -93 -32 -120 -86c-24 -50 -40 -119 -40 -177z" />
    <glyph glyph-name="ecaron" unicode="&#x11b;" horiz-adv-x="520" 
d="M313 567l-136 126l71 10l77 -66l99 66l70 -10zM394 146l64 -30c-56 -91 -121 -130 -214 -130c-128 0 -211 90 -211 227c0 170 110 298 255 298c123 0 197 -81 197 -213c0 -19 -1 -32 -5 -57h-364c-2 -18 -3 -27 -3 -39c0 -92 52 -152 132 -152c64 0 99 23 149 96z
M125 297h282l1 24c3 79 -49 131 -124 131c-78 0 -140 -60 -159 -155z" />
    <glyph glyph-name="edotaccent" unicode="&#x117;" horiz-adv-x="520" 
d="M327 587c-28 0 -52 24 -52 53s24 52 53 52c28 0 52 -24 52 -52c0 -29 -24 -53 -53 -53zM394 146l64 -30c-56 -91 -121 -130 -214 -130c-128 0 -211 90 -211 227c0 170 110 298 255 298c123 0 197 -81 197 -213c0 -19 -1 -32 -5 -57h-364c-2 -18 -3 -27 -3 -39
c0 -92 52 -152 132 -152c64 0 99 23 149 96zM125 297h282l1 24c3 79 -49 131 -124 131c-78 0 -140 -60 -159 -155z" />
    <glyph glyph-name="emacron" unicode="&#x113;" horiz-adv-x="520" 
d="M173 604l9 53h300l-9 -53h-300zM394 146l64 -30c-56 -91 -121 -130 -214 -130c-128 0 -211 90 -211 227c0 170 110 298 255 298c123 0 197 -81 197 -213c0 -19 -1 -32 -5 -57h-364c-2 -18 -3 -27 -3 -39c0 -92 52 -152 132 -152c64 0 99 23 149 96zM125 297h282l1 24
c3 79 -49 131 -124 131c-78 0 -140 -60 -159 -155z" />
    <glyph glyph-name="eogonek" unicode="&#x119;" horiz-adv-x="520" 
d="M379 -111l5 -33c-24 -11 -46 -16 -73 -16c-55 0 -85 23 -85 66c0 31 12 57 38 81c-7 -1 -11 -1 -19 -1c-129 0 -212 89 -212 227c0 170 110 298 255 298c123 0 197 -81 197 -213c0 -19 -1 -32 -5 -57h-364c-2 -18 -3 -27 -3 -39c0 -92 52 -152 132 -152
c64 0 99 23 149 96l64 -30c-32 -52 -63 -80 -105 -105c-50 -29 -67 -55 -67 -88c0 -28 16 -41 51 -41c14 0 25 2 42 7zM125 297h282l1 24c3 79 -49 131 -124 131c-78 0 -140 -60 -159 -155z" />
    <glyph glyph-name="gbreve" unicode="&#x11f;" horiz-adv-x="503" 
d="M403 702h56c-28 -86 -79 -125 -164 -125s-121 37 -124 125h54c3 -49 26 -70 77 -70c52 0 76 16 101 70zM562 552l-16 -63c-34 5 -43 6 -54 6c-35 0 -60 -18 -74 -53c27 -31 39 -61 39 -99c0 -103 -83 -180 -196 -180c-34 0 -60 6 -95 21c-43 -20 -64 -42 -64 -67
c0 -12 7 -22 22 -27s21 -6 113 -7c97 -2 137 -7 166 -26c35 -22 53 -54 53 -95c0 -100 -81 -152 -237 -152c-162 0 -243 40 -243 119c0 47 33 86 91 107c-29 18 -39 34 -39 64c0 48 31 80 103 109c-38 30 -55 66 -55 115c0 101 83 175 197 175c44 0 76 -8 109 -29
c30 67 63 91 124 91c19 0 32 -2 56 -9zM258 218c71 0 122 48 122 116c0 65 -43 108 -109 108c-70 0 -119 -48 -119 -118c0 -64 42 -106 106 -106zM51 -54c0 -50 68 -79 185 -79c95 0 147 28 147 80c0 43 -32 57 -135 58c-63 0 -90 2 -134 10c-41 -13 -63 -37 -63 -69z" />
    <glyph glyph-name="gcircumflex" unicode="&#x11d;" horiz-adv-x="503" 
d="M172 605l154 127l109 -127l-64 -10l-57 67l-79 -67zM562 552l-16 -63c-34 5 -43 6 -54 6c-35 0 -60 -18 -74 -53c27 -31 39 -61 39 -99c0 -103 -83 -180 -196 -180c-34 0 -60 6 -95 21c-43 -20 -64 -42 -64 -67c0 -12 7 -22 22 -27s21 -6 113 -7c97 -2 137 -7 166 -26
c35 -22 53 -54 53 -95c0 -100 -81 -152 -237 -152c-162 0 -243 40 -243 119c0 47 33 86 91 107c-29 18 -39 34 -39 64c0 48 31 80 103 109c-38 30 -55 66 -55 115c0 101 83 175 197 175c44 0 76 -8 109 -29c30 67 63 91 124 91c19 0 32 -2 56 -9zM258 218
c71 0 122 48 122 116c0 65 -43 108 -109 108c-70 0 -119 -48 -119 -118c0 -64 42 -106 106 -106zM51 -54c0 -50 68 -79 185 -79c95 0 147 28 147 80c0 43 -32 57 -135 58c-63 0 -90 2 -134 10c-41 -13 -63 -37 -63 -69z" />
    <glyph glyph-name="gcommaaccent" unicode="&#x123;" horiz-adv-x="503" 
d="M249 573l101 174h31l-55 -174h-77zM562 552l-16 -63c-34 5 -43 6 -54 6c-35 0 -60 -18 -74 -53c27 -31 39 -61 39 -99c0 -103 -83 -180 -196 -180c-34 0 -60 6 -95 21c-43 -20 -64 -42 -64 -67c0 -12 7 -22 22 -27s21 -6 113 -7c97 -2 137 -7 166 -26
c35 -22 53 -54 53 -95c0 -100 -81 -152 -237 -152c-162 0 -243 40 -243 119c0 47 33 86 91 107c-29 18 -39 34 -39 64c0 48 31 80 103 109c-38 30 -55 66 -55 115c0 101 83 175 197 175c44 0 76 -8 109 -29c30 67 63 91 124 91c19 0 32 -2 56 -9zM258 218
c71 0 122 48 122 116c0 65 -43 108 -109 108c-70 0 -119 -48 -119 -118c0 -64 42 -106 106 -106zM51 -54c0 -50 68 -79 185 -79c95 0 147 28 147 80c0 43 -32 57 -135 58c-63 0 -90 2 -134 10c-41 -13 -63 -37 -63 -69z" />
    <glyph glyph-name="gdotaccent" unicode="&#x121;" horiz-adv-x="503" 
d="M305 587c-28 0 -52 24 -52 53s24 52 53 52c28 0 52 -24 52 -52c0 -29 -24 -53 -53 -53zM562 552l-16 -63c-34 5 -43 6 -54 6c-35 0 -60 -18 -74 -53c27 -31 39 -61 39 -99c0 -103 -83 -180 -196 -180c-34 0 -60 6 -95 21c-43 -20 -64 -42 -64 -67c0 -12 7 -22 22 -27
s21 -6 113 -7c97 -2 137 -7 166 -26c35 -22 53 -54 53 -95c0 -100 -81 -152 -237 -152c-162 0 -243 40 -243 119c0 47 33 86 91 107c-29 18 -39 34 -39 64c0 48 31 80 103 109c-38 30 -55 66 -55 115c0 101 83 175 197 175c44 0 76 -8 109 -29c30 67 63 91 124 91
c19 0 32 -2 56 -9zM258 218c71 0 122 48 122 116c0 65 -43 108 -109 108c-70 0 -119 -48 -119 -118c0 -64 42 -106 106 -106zM51 -54c0 -50 68 -79 185 -79c95 0 147 28 147 80c0 43 -32 57 -135 58c-63 0 -90 2 -134 10c-41 -13 -63 -37 -63 -69z" />
    <glyph glyph-name="hcircumflex" unicode="&#x125;" horiz-adv-x="545" 
d="M105 733l-70 10l180 120l137 -120l-70 -10l-79 60zM35 0l112 667h76l-45 -264c51 75 99 106 166 106c83 0 141 -55 141 -134c0 -14 -3 -44 -8 -71l-51 -304h-75l51 304c4 23 6 46 6 61c0 51 -33 84 -82 84c-51 0 -99 -37 -136 -103c-21 -38 -35 -81 -45 -143l-34 -203
h-76z" />
    <glyph glyph-name="imacron" unicode="&#x12b;" horiz-adv-x="230" 
d="M72 604l9 53h207l-9 -53h-207zM36 0l83 495h76l-83 -495h-76z" />
    <glyph glyph-name="iogonek" unicode="&#x12f;" horiz-adv-x="230" 
d="M122 576l15 91h100l-15 -91h-100zM36 0l83 495h76l-82 -495h-16l-8 -4c-46 -23 -65 -48 -65 -75c0 -26 17 -39 51 -39c14 0 25 2 42 7l6 -33c-25 -11 -47 -16 -74 -16c-54 0 -85 23 -85 63c0 43 27 74 85 97h-13z" />
    <glyph glyph-name="itilde" unicode="&#x129;" horiz-adv-x="230" 
d="M57 593l-41 29c29 41 65 62 108 62c23 0 23 0 85 -26c13 -6 28 -9 43 -9c22 0 36 6 58 25l37 -35c-38 -37 -61 -49 -98 -49c-24 0 -24 0 -84 27c-14 6 -29 9 -44 9c-27 0 -43 -9 -64 -33zM36 0l83 495h76l-83 -495h-76z" />
    <glyph glyph-name="jcircumflex" unicode="&#x135;" horiz-adv-x="229" 
d="M77 573l-70 10l181 127l136 -127l-70 -10l-78 67zM40 31l78 464h76l-78 -464c-16 -96 -23 -118 -46 -148c-28 -35 -72 -55 -124 -55c-18 0 -38 2 -67 6l10 59c26 -3 40 -4 52 -4c43 0 70 19 82 56c3 10 9 39 17 86z" />
    <glyph glyph-name="kcommaaccent" unicode="&#x137;" horiz-adv-x="490" 
d="M35 0l112 667h76l-71 -421l264 249h89l-190 -177l123 -318h-81l-104 267l-117 -116l-25 -151h-76zM171 -53h77l-101 -174h-31z" />
    <glyph glyph-name="lacute" unicode="&#x13a;" horiz-adv-x="229" 
d="M198 724l-25 38l148 113l33 -51zM35 0l112 667h76l-112 -667h-76z" />
    <glyph glyph-name="lcaron" unicode="&#x13e;" horiz-adv-x="307" 
d="M248 493l55 174h77l-101 -174h-31zM35 0l112 667h76l-112 -667h-76z" />
    <glyph glyph-name="lcommaaccent" unicode="&#x13c;" horiz-adv-x="229" 
d="M36 0l111 667h76l-111 -667h-76zM26 -53h77l-101 -174h-31z" />
    <glyph glyph-name="nacute" unicode="&#x144;" horiz-adv-x="548" 
d="M329 570l-25 38l148 113l33 -51zM35 0l83 495h66l-19 -110c46 84 102 124 175 124c83 0 146 -60 146 -139c0 -21 -4 -51 -9 -84l-47 -286h-73l48 285c5 29 8 58 8 70c0 56 -36 93 -92 93c-49 0 -93 -29 -127 -83c-25 -41 -42 -93 -58 -188l-30 -177h-71z" />
    <glyph glyph-name="ncaron" unicode="&#x148;" horiz-adv-x="548" 
d="M339 567l-136 126l71 10l77 -66l99 66l70 -10zM35 0l83 495h66l-19 -110c46 84 102 124 175 124c83 0 146 -60 146 -139c0 -21 -4 -51 -9 -84l-47 -286h-73l48 285c5 29 8 58 8 70c0 56 -36 93 -92 93c-49 0 -93 -29 -127 -83c-25 -41 -42 -93 -58 -188l-30 -177h-71z
" />
    <glyph glyph-name="ncommaaccent" unicode="&#x146;" horiz-adv-x="548" 
d="M35 0l83 495h66l-19 -110c46 84 102 124 175 124c83 0 146 -60 146 -139c0 -21 -4 -51 -9 -84l-47 -286h-73l48 285c5 29 8 58 8 70c0 56 -36 93 -92 93c-49 0 -93 -29 -127 -83c-25 -41 -42 -93 -58 -188l-30 -177h-71zM184 -53h77l-101 -174h-31z" />
    <glyph glyph-name="ohungarumlaut" unicode="&#x151;" horiz-adv-x="521" 
d="M391 570l-25 38l148 113l33 -51zM238 570l-25 38l148 113l33 -51zM37 214c0 162 111 293 249 293c120 0 198 -88 198 -225c0 -166 -110 -297 -248 -297c-120 0 -199 91 -199 229zM119 195c0 -94 45 -149 121 -149c47 0 87 23 113 65c31 50 50 120 50 187
c0 47 -7 78 -25 102c-21 29 -57 47 -96 47c-47 0 -88 -24 -115 -67c-30 -50 -48 -119 -48 -185z" />
    <glyph glyph-name="omacron" unicode="&#x14d;" horiz-adv-x="521" 
d="M177 604l9 53h300l-9 -53h-300zM37 214c0 162 111 293 249 293c120 0 198 -88 198 -225c0 -166 -110 -297 -248 -297c-120 0 -199 91 -199 229zM119 195c0 -94 45 -149 121 -149c47 0 87 23 113 65c31 50 50 120 50 187c0 47 -7 78 -25 102c-21 29 -57 47 -96 47
c-47 0 -88 -24 -115 -67c-30 -50 -48 -119 -48 -185z" />
    <glyph glyph-name="racute" unicode="&#x155;" horiz-adv-x="339" 
d="M239 570l-25 38l148 113l33 -51zM35 0l83 495h76l-24 -130c57 106 106 144 185 144h17l-13 -78h-21c-69 0 -120 -41 -158 -125c-21 -45 -33 -94 -50 -195l-19 -111h-76z" />
    <glyph glyph-name="rcaron" unicode="&#x159;" horiz-adv-x="339" 
d="M238 567l-136 126l71 10l77 -66l99 66l70 -10zM35 0l83 495h76l-24 -130c57 106 106 144 185 144h17l-13 -78h-21c-69 0 -120 -41 -158 -125c-21 -45 -33 -94 -50 -195l-19 -111h-76z" />
    <glyph glyph-name="rcommaaccent" unicode="&#x157;" horiz-adv-x="339" 
d="M36 0l83 495h76l-24 -130c57 106 106 144 185 144h17l-13 -78h-21c-69 0 -120 -41 -159 -125c-20 -45 -34 -94 -50 -195l-18 -111h-76zM27 -53h77l-101 -174h-31z" />
    <glyph glyph-name="sacute" unicode="&#x15b;" horiz-adv-x="461" 
d="M248 570l-25 38l148 113l32 -51zM-4 122l71 24c24 -66 73 -98 149 -98c69 0 115 34 115 85c0 22 -11 43 -27 54c-13 8 -35 16 -70 24l-26 6c-60 14 -85 24 -111 43c-30 22 -48 58 -48 96c0 88 74 149 179 149c95 0 162 -41 191 -116l-64 -27c-21 55 -66 83 -129 83
c-58 0 -99 -32 -99 -77c0 -25 13 -46 37 -56c16 -7 30 -11 66 -19l30 -7c55 -13 77 -21 100 -39c30 -24 47 -60 47 -101c0 -94 -80 -159 -194 -159c-109 0 -180 44 -217 135z" />
    <glyph glyph-name="scedilla" unicode="&#x15f;" horiz-adv-x="461" 
d="M-4 122l71 24c24 -66 73 -98 149 -98c69 0 115 34 115 85c0 22 -11 43 -27 54c-13 8 -35 16 -70 24l-26 6c-60 14 -85 24 -111 43c-30 22 -48 58 -48 96c0 88 74 149 179 149c95 0 162 -41 191 -116l-64 -27c-21 55 -66 83 -129 83c-58 0 -99 -32 -99 -77
c0 -25 13 -46 37 -56c16 -7 30 -11 66 -19l30 -7c55 -13 77 -21 100 -39c30 -24 47 -60 47 -101c0 -94 -79 -159 -193 -159h-8l-15 -35c8 1 14 1 18 1c42 0 74 -26 74 -61c0 -46 -42 -77 -106 -77c-33 0 -55 6 -84 22l15 32c28 -13 44 -17 67 -17c34 0 56 15 56 38
c0 22 -19 32 -58 32c-9 0 -18 -1 -33 -3l31 71c-87 11 -147 56 -175 132z" />
    <glyph glyph-name="scircumflex" unicode="&#x15d;" horiz-adv-x="461" 
d="M98 583l181 127l136 -127l-71 -10l-77 67l-99 -67zM-4 122l71 24c24 -66 73 -98 149 -98c69 0 115 34 115 85c0 22 -11 43 -27 54c-13 8 -35 16 -70 24l-26 6c-60 14 -85 24 -111 43c-30 22 -48 58 -48 96c0 88 74 149 179 149c95 0 162 -41 191 -116l-64 -27
c-21 55 -66 83 -129 83c-58 0 -99 -32 -99 -77c0 -25 13 -46 37 -56c16 -7 30 -11 66 -19l30 -7c55 -13 77 -21 100 -39c30 -24 47 -60 47 -101c0 -94 -80 -159 -194 -159c-109 0 -180 44 -217 135z" />
    <glyph glyph-name="scommaaccent" unicode="&#x219;" horiz-adv-x="461" 
d="M-4 122l71 24c24 -66 73 -98 149 -98c69 0 115 34 115 85c0 22 -11 43 -27 54c-13 8 -35 16 -70 24l-26 6c-60 14 -85 24 -111 43c-30 22 -48 58 -48 96c0 88 74 149 179 149c95 0 162 -41 191 -116l-64 -27c-21 55 -66 83 -129 83c-58 0 -99 -32 -99 -77
c0 -25 13 -46 37 -56c16 -7 30 -11 66 -19l30 -7c55 -13 77 -21 100 -39c30 -24 47 -60 47 -101c0 -94 -80 -159 -194 -159c-109 0 -180 44 -217 135zM132 -53h77l-101 -174h-31z" />
    <glyph glyph-name="tcaron" unicode="&#x165;" horiz-adv-x="319" 
d="M260 550l54 174h78l-101 -174h-31zM242 -6l-26 -3c-11 -1 -22 -2 -32 -2c-84 0 -124 35 -124 109c0 23 3 48 12 103l39 234h-75l10 60h77l20 120l75 6l-21 -126h112l-10 -60h-112l-45 -268c-4 -25 -7 -48 -7 -61c0 -35 23 -55 62 -55c14 0 32 0 52 3l15 2l-8 -61z" />
    <glyph glyph-name="tcommaaccent" unicode="&#x163;" horiz-adv-x="307" 
d="M242 -6l-26 -3c-10 -1 -22 -2 -32 -2c-84 0 -124 35 -124 109c0 23 1 41 12 103l40 234h-76l10 60h77l20 120l75 6l-21 -126h113l-10 -60h-113l-45 -268c-4 -26 -7 -50 -7 -61c0 -35 23 -55 62 -55c14 0 32 1 52 3l16 2l-8 -61zM52 -53h77l-101 -174h-31z" />
    <glyph glyph-name="ubreve" unicode="&#x16d;" horiz-adv-x="543" 
d="M442 702h56c-28 -86 -79 -125 -164 -125s-121 37 -124 125h54c3 -49 26 -70 77 -70c53 0 76 16 101 70zM357 0l20 120c-49 -93 -103 -133 -179 -133c-82 0 -137 56 -137 139c0 22 3 49 10 92l48 277h76l-50 -301c-7 -42 -9 -53 -9 -64c0 -48 32 -80 81 -80s90 28 129 89
c31 48 45 89 58 166l32 190h71l-83 -495h-67z" />
    <glyph glyph-name="uhungarumlaut" unicode="&#x171;" horiz-adv-x="543" 
d="M400 570l-25 38l148 113l33 -51zM247 570l-25 38l148 113l33 -51zM357 0l20 120c-49 -93 -103 -133 -179 -133c-82 0 -137 56 -137 139c0 22 3 49 10 92l48 277h76l-50 -301c-7 -42 -9 -53 -9 -64c0 -48 32 -80 81 -80s90 28 129 89c31 48 45 89 58 166l32 190h71
l-83 -495h-67z" />
    <glyph glyph-name="umacron" unicode="&#x16b;" horiz-adv-x="543" 
d="M184 604l9 53h300l-9 -53h-300zM357 0l20 120c-49 -93 -103 -133 -179 -133c-82 0 -137 56 -137 139c0 22 3 49 10 92l48 277h76l-50 -301c-7 -42 -9 -53 -9 -64c0 -48 32 -80 81 -80s90 28 129 89c31 48 45 89 58 166l32 190h71l-83 -495h-67z" />
    <glyph glyph-name="uogonek" unicode="&#x173;" horiz-adv-x="543" 
d="M357 0l20 120c-49 -93 -103 -133 -179 -133c-82 0 -137 56 -137 139c0 22 3 49 10 92l48 277h76l-50 -301c-7 -42 -9 -53 -9 -64c0 -48 32 -80 81 -80s90 28 129 89c31 48 45 89 58 166l32 190h71l-83 -495h-19l-8 -4c-46 -23 -65 -48 -65 -75c0 -26 17 -39 51 -39
c14 0 25 2 42 7l6 -33c-25 -11 -47 -16 -74 -16c-54 0 -85 23 -85 63c0 43 27 74 85 97z" />
    <glyph glyph-name="uring" unicode="&#x16f;" horiz-adv-x="543" 
d="M342 563c-46 0 -85 38 -85 85s39 85 86 85c46 0 83 -39 83 -86c0 -46 -37 -84 -84 -84zM342 603c24 0 44 20 44 45c0 24 -20 45 -43 45c-25 0 -46 -20 -46 -45c0 -24 21 -45 45 -45zM357 0l20 120c-49 -93 -103 -133 -179 -133c-82 0 -137 56 -137 139c0 22 3 49 10 92
l48 277h76l-50 -301c-7 -42 -9 -53 -9 -64c0 -48 32 -80 81 -80s90 28 129 89c31 48 45 89 58 166l32 190h71l-83 -495h-67z" />
    <glyph glyph-name="utilde" unicode="&#x169;" horiz-adv-x="543" 
d="M201 593l-41 29c29 41 65 62 108 62c23 0 23 0 85 -26c13 -6 28 -9 43 -9c22 0 36 6 58 25l37 -35c-38 -37 -61 -49 -98 -49c-24 0 -24 0 -84 27c-14 6 -29 9 -44 9c-27 0 -43 -9 -64 -33zM357 0l20 120c-49 -93 -103 -133 -179 -133c-82 0 -137 56 -137 139
c0 22 3 49 10 92l48 277h76l-50 -301c-7 -42 -9 -53 -9 -64c0 -48 32 -80 81 -80s90 28 129 89c31 48 45 89 58 166l32 190h71l-83 -495h-67z" />
    <glyph glyph-name="wcircumflex" unicode="&#x175;" horiz-adv-x="674" 
d="M130 0l-76 495h75l55 -372l156 372h63l59 -372l163 372h65l-221 -495h-57l-62 377l-158 -377h-62zM219 583l181 127l136 -127l-71 -10l-77 67l-99 -67z" />
    <glyph glyph-name="ycircumflex" unicode="&#x177;" horiz-adv-x="425" 
d="M-48 -171l11 67c20 -4 30 -5 43 -5c53 0 92 27 121 88l16 34l-103 482h78l80 -376l195 376h66l-271 -522c-31 -59 -46 -81 -72 -105c-31 -28 -69 -42 -115 -42c-15 0 -26 1 -49 3zM105 583l181 127l136 -127l-71 -10l-77 67l-99 -67z" />
    <glyph glyph-name="zacute" unicode="&#x17a;" horiz-adv-x="419" 
d="M252 570l-25 38l148 113l33 -51zM-18 0l9 52l326 380h-253l10 63h356l-9 -51l-330 -382h277l-10 -62h-376z" />
    <glyph glyph-name="zdotaccent" unicode="&#x17c;" horiz-adv-x="419" 
d="M281 587c-28 0 -52 24 -52 53s24 52 53 52c28 0 52 -24 52 -52c0 -29 -24 -53 -53 -53zM-18 0l9 52l326 380h-253l10 63h356l-9 -51l-330 -382h277l-10 -62h-376z" />
    <glyph glyph-name="uni00A0" unicode="&#xa0;" horiz-adv-x="250" 
 />
    <glyph glyph-name="uni00AD" unicode="&#xad;" horiz-adv-x="250" 
d="M10 220l9 57h222l-9 -57h-222z" />
    <glyph glyph-name="uni021A" unicode="&#x21a;" horiz-adv-x="488" 
d="M162 0l100 599h-193l11 68h468l-11 -68h-193l-101 -599h-81zM151 -53h80l-103 -179h-33z" />
    <glyph glyph-name="i.dot" horiz-adv-x="230" 
d="M122 576l16 91h99l-15 -91h-100zM36 0l83 495h77l-83 -495h-77z" />
    <glyph glyph-name="uni021B" unicode="&#x21b;" horiz-adv-x="307" 
d="M242 -6l-26 -3c-10 -1 -22 -2 -32 -2c-84 0 -124 35 -124 109c0 23 1 41 12 103l40 234h-76l10 60h77l20 120l75 6l-21 -126h113l-10 -60h-113l-45 -268c-4 -26 -7 -50 -7 -61c0 -35 23 -55 62 -55c14 0 32 1 52 3l16 2l-8 -61zM52 -53h77l-101 -174h-31z" />
    <glyph glyph-name="uni03A9" unicode="&#x3a9;" 
d="M-27 0l12 71h159c-83 69 -114 136 -114 243c0 210 127 366 300 366c142 0 233 -101 233 -259c0 -82 -19 -162 -53 -223c-30 -54 -64 -87 -130 -127h164l-12 -71h-244l12 71c71 47 105 85 134 148c27 59 42 130 42 197c0 121 -58 197 -151 197c-124 0 -209 -126 -209 -310
c0 -106 30 -170 109 -232l-12 -71h-240z" />
    <glyph glyph-name="uni2032" unicode="&#x2032;" horiz-adv-x="232" 
d="M94 412l82 255h75l-111 -255h-46z" />
    <glyph glyph-name="uni2033" unicode="&#x2033;" horiz-adv-x="363" 
d="M94 412l82 255h75l-111 -255h-46zM225 412l82 255h75l-111 -255h-46z" />
    <glyph glyph-name="uni2113" unicode="&#x2113;" horiz-adv-x="511" 
d="M141 87c0 23 1 45 7 106c-21 -23 -45 -43 -51 -43c-7 0 -15 11 -15 21c0 8 4 15 18 28c15 14 33 34 55 62c54 289 116 419 202 419c43 0 70 -34 70 -87s-25 -125 -66 -189c-22 -36 -54 -74 -112 -135c-13 -64 -28 -174 -28 -198c0 -17 5 -25 17 -25c16 0 27 12 46 52
c7 14 12 19 21 19s15 -7 15 -17c0 -14 -8 -35 -22 -57c-23 -37 -51 -56 -82 -56c-49 0 -75 35 -75 100zM258 330c32 35 47 55 66 88c33 57 58 132 58 176c0 20 -10 35 -24 35c-38 0 -62 -71 -100 -299z" />
    <glyph glyph-name="uni2117" unicode="&#x2117;" horiz-adv-x="773" 
d="M56 336c0 190 156 342 350 342c185 0 339 -157 339 -344c0 -191 -154 -345 -344 -345c-192 0 -345 154 -345 347zM105 336c0 -165 131 -298 296 -298c162 0 295 133 295 296c0 160 -133 295 -291 295c-90 0 -165 -33 -224 -98c-48 -53 -76 -124 -76 -195zM228 133l67 400
h134c49 0 78 -5 100 -17c35 -19 55 -53 55 -91c0 -82 -70 -119 -161 -119h-105l-29 -173h-61zM325 352h90c74 0 107 23 107 74c0 41 -28 62 -84 62h-90z" />
    <glyph glyph-name="shift" unicode="&#x21e7;" horiz-adv-x="875" 
d="M269 0l59 339h-192l451 383l315 -383h-192l-59 -339h-382zM336 57h268l58 332h120l-209 253l-299 -253h120z" />
    <glyph glyph-name="control" unicode="&#x2303;" horiz-adv-x="458" 
d="M121 485l-35 43l228 194l160 -194l-51 -43l-125 150z" />
    <glyph glyph-name="option" unicode="&#x2325;" horiz-adv-x="881" 
d="M582 602l-21 65h334l-11 -65h-302zM534 0l-192 602h-201l11 65h244l192 -602h201l-11 -65h-244z" />
    <glyph glyph-name="command" horiz-adv-x="810" 
d="M347 210l-15 -81c-15 -78 -85 -141 -164 -141c-70 0 -117 50 -117 117c0 90 81 162 166 162h83l23 134h-83c-69 0 -116 47 -116 112c0 89 78 167 165 167c70 0 118 -51 118 -117c0 -19 -1 -16 -17 -105h134l15 81c14 78 85 141 164 141c70 0 117 -50 117 -117
c0 -90 -81 -162 -166 -162h-83l-23 -134h83c69 0 116 -47 116 -112c0 -89 -78 -167 -165 -167c-70 0 -118 51 -118 117c0 19 1 16 17 105h-134zM581 458h83c48 0 98 41 98 96c0 39 -28 69 -69 69c-49 0 -89 -38 -97 -84zM250 458h83c16 86 16 86 16 95c0 39 -29 70 -70 70
c-50 0 -98 -47 -98 -100c0 -37 28 -65 69 -65zM357 267h134l23 134h-134zM621 210h-83c-16 -86 -16 -86 -16 -95c0 -39 29 -70 70 -70c50 0 98 47 98 100c0 37 -28 65 -69 65zM290 210h-83c-48 0 -98 -41 -98 -96c0 -39 28 -69 69 -69c48 0 88 38 97 84z" />
    <glyph glyph-name="apple" unicode="&#xf8ff;" horiz-adv-x="800" 
d="M35 101v649h629c56 0 101 -45 101 -101v-649h-629c-56 0 -101 45 -101 101zM233 628v-169c0 -45 24 -72 70 -72s70 27 70 72v169c0 46 -24 72 -70 72s-70 -26 -70 -72zM400 390h54v234c0 15 5 23 16 23c10 0 16 -8 16 -23v-234h54v240c0 46 -18 68 -58 68
c-5 0 -23 -2 -27 -10v9h-55v-307zM581 459c0 -45 24 -72 70 -72s70 27 70 72v34h-54v-31c0 -15 -6 -23 -16 -23s-16 8 -16 23v128h78v52h-79v55h-54v-55h-18v-52h19v-131zM92 390h54v103h59v60h-59v84h67v60h-121v-307zM319 624v-162c0 -15 -6 -22 -16 -22s-16 7 -16 22v162
c0 15 6 23 16 23s16 -8 16 -23zM526 122c0 -45 24 -72 70 -72s70 27 70 72v12h-54v-9c0 -15 -6 -22 -16 -22s-16 7 -16 22v39h86v127c0 46 -24 72 -70 72s-70 -26 -70 -72v-169zM90 131c0 -52 25 -81 73 -81s73 33 73 89c0 28 -5 53 -66 95c-15 10 -26 19 -26 38
c0 27 6 38 19 38c12 0 18 -11 18 -32v-25h54v29c0 53 -24 81 -72 81s-74 -33 -74 -89c0 -28 5 -55 67 -96c15 -10 25 -19 25 -37c0 -27 -6 -38 -19 -38c-12 0 -18 11 -18 32v10h-54v-14zM365 122c0 -45 24 -72 70 -72s70 27 70 72v34h-54v-31c0 -15 -6 -22 -16 -22
s-16 7 -16 22v128h78v52h-79v55h-54v-55h-18v-52h19v-131zM266 299h54v61h-54v-61zM580 210v77c0 15 6 23 16 23s16 -8 16 -23v-77h-32zM266 53h54v215h-54v-215zM706 53h6v27l9 -21h4l9 21v-27h6v35h-8l-9 -21l-9 21h-8v-35zM674 82h10v-29h6v29h10v6h-26v-6z" />
    </font>
</defs>
</svg>
