<svg data-name="Layer 1" xmlns="http://www.w3.org/2000/svg" viewBox="0 0 100 96.19"><path style="fill:#d73648" d="M0 49.27h100v46.92H0z"/><path d="M91.19 65.1c-.54.33-2.63.35-3.89.35v-4.76c0-.85 0-1.75.07-2.64 0-.45-.12-.68-.92-.68h-.96c.07 1.15.12 2.26.12 3.35v2.46c0 .87 0 1.74-.07 2.63 0 .35 0 .68.85.68h4.2a.72.72 0 0 0 .61-.66s-.01-.23-.01-.73ZM69.52 62h-1a9.65 9.65 0 0 1 .12 2v1.34a5.46 5.46 0 0 1-1.94.31A3.36 3.36 0 0 1 63.18 62c0-2.09 1.2-3.73 3.4-3.73a5 5 0 0 1 3 1.27l.28-.8a.61.61 0 0 0-.31-.8 6.79 6.79 0 0 0-3-.61c-3 0-5.28 1.43-5.28 4.67s2.28 4.65 5.21 4.65a15 15 0 0 0 3.79-.65v-3.33a.67.67 0 0 0-.75-.67Zm8.92 11.15h-1.5a1.72 1.72 0 0 1-.12.75c-.31.63-.68 1.29-1 1.92s-1.13 1.92-1.5 2.51c-.91-1.48-1.69-3-2.51-4.53a1.19 1.19 0 0 0-1.17-.64h-1.87c1.57 2.25 2.79 4.29 4.1 6.52 0 1.29 0 3-.09 4.32a.61.61 0 0 0 .75.63h1.67C75 83 75 81.11 75 79.54c1.08-1.95 2.32-3.75 3.66-5.72a.55.55 0 0 0 .12-.4.32.32 0 0 0-.35-.31ZM54.51 59.47A1.37 1.37 0 0 1 56 58.18a2.38 2.38 0 0 1 2 1.13 2.58 2.58 0 0 0 .49-1.13c0-.77-1.76-1-2.35-1-1.57 0-3.12.87-3.12 2.58 0 3 4.27 2.2 4.27 4.2a1.5 1.5 0 0 1-1.64 1.55 3.26 3.26 0 0 1-2.65-1.3 5.8 5.8 0 0 0-.24 1.1.82.82 0 0 0 .49.82 4.21 4.21 0 0 0 1.92.44c1.81 0 3.54-1 3.54-3 .05-2.86-4.2-1.99-4.2-4.1Zm-3.68-2.13h-1.22a7.4 7.4 0 0 1-1 2.09c-.52.82-1 1.64-1.27 2-.73-1.17-1.43-2.37-2.13-3.54a1 1 0 0 0-1-.51h-1.5c1.27 1.74 2.44 3.52 3.57 5.35v1c0 .84-.07 1.76-.07 2.25a.51.51 0 0 0 .61.47h1.24a36.84 36.84 0 0 1-.14-3.94 36.61 36.61 0 0 1 2.16-3.26c.31-.47.66-.92 1-1.36a.69.69 0 0 0 .12-.31.28.28 0 0 0-.37-.24Zm-10.42.05h-5.17c0 .49.07.94.12 1.43v3.36c0 1.57-.07 2.41-.07 3.63a.6.6 0 0 0 .7.66h1.13c-.02-1.05-.12-2.08-.12-3.14v-1.2a20.2 20.2 0 0 1 3.61.24c0-.42.12-1.22-.52-1.22s-1.85.14-3.1.14v-2.96a14.29 14.29 0 0 1 3.87.33c.09-.47.23-1.26-.45-1.26Zm-9.55 4.08c0-1.81.09-2.23.09-3.35a.65.65 0 0 0-.75-.77h-1.08a38.65 38.65 0 0 1 .14 4.22c0 2.25-.09 2.75-.09 4.13a.66.66 0 0 0 .7.75H31c-.09-1.03-.14-2.55-.14-4.97ZM38 80.34a8.24 8.24 0 0 1-3.54.47c-.35 0-.4-.21-.42-.63V76.9a12.43 12.43 0 0 1 3.45.33v-.73c0-.49-.26-.68-.94-.68s-1.62.12-2.58.12v-3.49c2.74 0 3.43.23 3.82.4v-.53a.9.9 0 0 0-.79-.92h-5.19a3.33 3.33 0 0 1 .26 1.53v5q0 1.48-.07 3c0 .52.09.82.63.82h4.46a.74.74 0 0 0 .91-.66v-.75Zm-15.64-9.05A12.63 12.63 0 0 0 16.82 70c-6.29 0-10.46 5.07-10.46 11.26 0 6 4.57 9.9 10.42 9.9a11 11 0 0 0 6.12-1.76l-.24-2a7.45 7.45 0 0 1-4.69 2c-5.18 0-8.63-4.29-8.63-9.29 0-4.27 2.44-8.49 7.13-8.49a6.59 6.59 0 0 1 4.34 1.52 4.23 4.23 0 0 1 1.36 2.21 6.34 6.34 0 0 0 1.2-2.7 1.65 1.65 0 0 0-1.01-1.36Zm55.56-14c-3 0-5 1.6-5 4.67 0 2.89 2.25 4.64 5 4.64S83 64.87 83 62s-2.27-4.71-5.09-4.71Zm0 8.37c-2.11 0-3.17-1.78-3.17-3.71s1.06-3.73 3.17-3.73S81.1 60 81.1 62c0 2.12-.77 3.67-3.19 3.67Zm9 5.76h-5.09a2.48 2.48 0 0 1 .37 1.19c.12 1.55.19 3.05.19 4.62h-4.88a2.75 2.75 0 0 1 .38 1.2c.14 1.67.19 3.24.19 4.9 0 2.13 0 4.29-.14 6.43a.58.58 0 0 0 .64.56h3.8c4.1 0 7.15-2.21 7.36-6.33a6.2 6.2 0 0 0 4.32-6.29c.03-4.49-2.88-6.27-7.06-6.27Zm2.79 11.19c-.33-3.19-2.32-4.76-5.21-5.21 0-1.76.07-3.29.14-4.9a9 9 0 0 1 1.38-.12c3.38 0 5.72 2 5.72 5.49a5.52 5.52 0 0 1-1.99 4.75Zm-2.84.8h-1.6a.56.56 0 0 1-.63-.54c-.09-1.41-.17-2.81-.17-4.08a5 5 0 0 1 3 4.6Zm-4.29 5.84H81a.57.57 0 0 1-.66-.52c-.09-1.55-.14-3-.14-4.53 0-1.94 0-4 .16-5.86a9 9 0 0 1 1.38-.1 6.25 6.25 0 0 1 .68 0q0 2.85-.14 5.7a.57.57 0 0 0 .63.54H87.44c-.22 2.76-1.72 4.78-4.82 4.78ZM60 71.48h-6.17c.35.49.49 1.43.59 3.33.07 1.38.12 2.79.12 4.2q0 2.57-.07 5.14c0 .94-.12 1.85-.12 2.79a.7.7 0 0 0 .78.68h4.69c5.21 0 9.1-2.89 9.1-8.35s-3.69-7.79-8.92-7.79Zm0 14.8h-2a.69.69 0 0 1-.8-.63c-.07-.47-.1-1.15-.12-1.64 0-1.06-.07-2.63-.07-3.94 0-2.42.12-4.83.21-7.22a10.6 10.6 0 0 1 1.78-.16c4.18 0 7.06 2.37 7.06 6.76.04 3.87-1.84 6.83-5.99 6.83Zm-12.6-4.95A5.58 5.58 0 0 0 51.66 76c0-3.38-3-4.62-6-4.62-1.9 0-3.82 0-5.75.07a4.81 4.81 0 0 1 .33 1.85v6.05c0 4.48-.21 7.06-.21 7.91 0 .35.14.4.44.4h3a1.84 1.84 0 0 1-.31-.89 36.72 36.72 0 0 1-.31-4.9h2c.83 1.31 1.86 2.84 3 4.39 1.77 2.32 4.17 5 7 5A20.52 20.52 0 0 0 57 91c-3.29-1.14-7.56-6.71-9.53-9.67Zm-2.93-.66h-1.64v-2.81c0-1.69 0-3.61.14-5.25.49 0 1.06-.1 1.6-.1 2.39 0 4.31 1.27 4.31 3.85a4.19 4.19 0 0 1-4.35 4.31ZM23.24 62.58a2.83 2.83 0 0 0 2.27-2.67c0-1.95-1.71-2.51-3.33-2.51H18.9a1.34 1.34 0 0 1 .21.61c.07 1 0 2.56 0 3.82v4.01a.55.55 0 0 0 .66.59h1.2a26.17 26.17 0 0 1-.17-3.54h1c.62 1.11 1.3 2.11 2.12 3.24a2.91 2.91 0 0 0 2.63 1.31H27a28.85 28.85 0 0 1-3.76-4.86Zm-2-.49h-.51v-3.91h.8a2.09 2.09 0 0 1 2.32 2c.05 1.49-1.32 1.94-2.6 1.91Zm-8-4.66H9.93a4.89 4.89 0 0 1 .21 1.64v6.66a.64.64 0 0 0 .66.75h1.13c-.1-1.1-.12-2.37-.12-3.54h.84c1.85 0 3.87-.89 3.87-3-.05-1.94-1.67-2.48-3.29-2.51Zm-.75 4.76h-.73v-3.94h.91c1.2 0 2.11.47 2.11 1.81a2.08 2.08 0 0 1-2.3 2.13ZM31.79 85l-4.88-11.13a.81.81 0 0 0-.8-.7h-.3l-5.63 12a1.11 1.11 0 0 0-.14.56.38.38 0 0 0 .47.28h1.24a1 1 0 0 1 0-.28 2.06 2.06 0 0 1 .14-.7l1.2-2.91h4.81l1.31 3.26A.79.79 0 0 0 30 86h2.39a2.82 2.82 0 0 1-.6-1Zm-8.23-4 2-4.74L27.47 81h-3.91Z" transform="translate(0 -1)" style="fill:#fff"/><path style="fill:#d73648" d="M0 0h100v46.92H0z"/><path d="M93.32 6.84h-9.66a68.64 68.64 0 0 1 .34 9.34c0 3.21-.26 8.66-.26 9.62a.86.86 0 0 0 1 .94h2.46a4.34 4.34 0 0 1-.26-1.36c-.21-2.89-.28-5.82-.28-8.7l1.48-.09a13 13 0 0 1 4.57.54 2.86 2.86 0 0 0 .28-1 1.1 1.1 0 0 0-1.34-.89h-5c0-2.35.1-4.69.19-7h1.55c1.39 0 5 0 6.1.68a3.35 3.35 0 0 0 .09-1.08 1.1 1.1 0 0 0-1.26-1ZM81 7.87h-8.39c.47.82.44 6.64.44 7.84 0 2.51-.23 6.1-.23 7.53a.79.79 0 0 0 .75.92h2.49a11.92 11.92 0 0 1-.4-3.24v-4.76c.35 0 1-.07 1.46-.07a9.55 9.55 0 0 1 3.82.54c0-.35.09-.7.09-1.06a.83.83 0 0 0-1-.77h-4.4c0-1.85.09-3.68.16-5.54h1.62a13.6 13.6 0 0 1 5.07.68v-.09c0-1.06-.3-1.98-1.48-1.98Zm-11.77 8.4c0-1.34 0-2.68.07-4 0-.7.09-1.43.09-2.14a.6.6 0 0 0-.66-.54h-2.29a38.82 38.82 0 0 1 .31 6.22c0 1.29 0 2.6-.07 3.92v1.81a.72.72 0 0 0 .73.77h2.16a38.64 38.64 0 0 1-.38-6.04Zm22.21 15.44h-1.2a7.93 7.93 0 0 1-1 2.09c-.49.82-1 1.64-1.24 1.95-.75-1.15-1.43-2.35-2.16-3.52a1 1 0 0 0-1-.52h-1.5c1.29 1.73 2.46 3.52 3.59 5.35v1c0 .87-.1 1.74-.1 2.23a.53.53 0 0 0 .64.47h1.22c-.12-1.29-.14-2.58-.14-3.89.66-1.13 1.41-2.21 2.16-3.26.33-.47.66-.92 1-1.36a.5.5 0 0 0 .06-.25.28.28 0 0 0-.33-.29Zm-8.86 0h-6.64a.89.89 0 0 0-1 .82V33a20.13 20.13 0 0 1 3-.16C78 34 78 35 78 36.1c0 1.85-.09 2.72-.09 4.08a.59.59 0 0 0 .73.61h1.13a42.61 42.61 0 0 1-.14-4.62v-3.28c.89 0 1.76.12 2.39.12a.68.68 0 0 0 .56-.82v-.46Zm-9.13 4.08c0-1.81.09-2.23.09-3.35a.65.65 0 0 0-.75-.77h-1.07a39.29 39.29 0 0 1 .14 4.22c0 2.25-.09 2.77-.09 4.13a.66.66 0 0 0 .7.75h1.13c-.1-1.02-.15-2.54-.15-4.96Zm-8.24-2a1.35 1.35 0 0 1 1.5-1.27 2.36 2.36 0 0 1 2 1.1 2.6 2.6 0 0 0 .49-1.13c0-.77-1.76-.94-2.32-.94-1.59 0-3.14.85-3.14 2.56 0 3 4.27 2.21 4.27 4.2a1.52 1.52 0 0 1-1.64 1.57 3.29 3.29 0 0 1-2.6-1.36 5.81 5.81 0 0 0-.23 1.1.82.82 0 0 0 .49.82 4.24 4.24 0 0 0 1.93.47c1.81 0 3.54-1 3.54-3-.05-2.91-4.29-2-4.29-4.11Zm-13.08 5.64a7.21 7.21 0 0 1-2.74.38h-.64c-.35 0-.35-.19-.35-.49v-2.83a14 14 0 0 1 3.31.28v-.73a.55.55 0 0 0-.68-.54c-.87 0-1.81.09-2.68.09V34c0-.44 0-.92.07-1.38a13.2 13.2 0 0 1 3.61.33c0-.54 0-1.24-.78-1.24H46.5a1.34 1.34 0 0 1 .19.52c.07 1.1.07 2.21.07 3.31 0 1.53-.07 3-.07 4.58a.5.5 0 0 0 .54.61h4.2a.62.62 0 0 0 .7-.63v-.67Zm-7.49-7.74h-1.27a2.86 2.86 0 0 1-.31 1.45c-.71 1.74-1.65 3.91-2.37 5.38-.47-1-1.19-2.75-1.78-4.15-.31-.71-.54-1.32-.84-2a1.07 1.07 0 0 0-1.15-.66h-1.17c1.41 3 2.81 6 4.06 9.13H41c1.2-2.91 2.56-5.72 3.89-8.59a.34.34 0 0 0 0-.16.32.32 0 0 0-.25-.41ZM22.4 7.73a12.46 12.46 0 0 0-5.51-1.29c-6.29 0-10.46 5.07-10.46 11.26 0 6 4.57 9.9 10.42 9.9A11 11 0 0 0 23 25.84l-.24-2a7.34 7.34 0 0 1-4.72 2c-5.16 0-8.61-4.29-8.61-9.29 0-4.27 2.44-8.47 7.13-8.47A6.59 6.59 0 0 1 20.9 9.6a4.2 4.2 0 0 1 1.36 2.21 6.55 6.55 0 0 0 1.2-2.72 1.64 1.64 0 0 0-1.06-1.36Zm11.43 28.08c0-1.81.09-2.23.09-3.35a.64.64 0 0 0-.73-.77h-1.1a38.65 38.65 0 0 1 .14 4.22c0 2.25-.1 2.77-.1 4.13a.66.66 0 0 0 .73.75H34c-.12-1.04-.17-2.56-.17-4.98Zm-4.93-4.08H28c.07 1.52.09 3 .09 4.57v1.57c-2.2-2-4.25-4.13-6.4-6.24H21v1.31c0 1.76 0 4.15-.07 5.28s-.16 1.5-.16 2.16a.37.37 0 0 0 .47.4h1a19.93 19.93 0 0 1-.16-2.91v-3.31c2.18 2.13 4.34 4.13 6.41 6.38h.71c0-1.53-.07-3-.07-4.55 0-.85.07-1.62.09-2.39s.12-1.38.12-1.78a.41.41 0 0 0-.44-.49Zm-11.23 0h-.85a15.4 15.4 0 0 1 .18 2.49v2.3c0 1.85-.56 3.31-2.72 3.31-2.49 0-2.74-1.5-2.74-3.61 0-1.36.14-3 .14-4.1a.41.41 0 0 0-.49-.42H9.83c.07 1 .09 1.67.09 3.24v2.23c0 2.7 1.52 3.78 4.1 3.78s4-1.31 4.11-3.82.21-4.13.21-4.93a.5.5 0 0 0-.67-.52ZM55.25 7.94 49.08 8c.33.52.47 1.46.56 3.35.09 1.39.12 2.79.12 4.2 0 1.71 0 3.4-.07 5.11 0 .94-.1 1.88-.1 2.81a.72.72 0 0 0 .77.68H55c5.23 0 9.13-2.89 9.13-8.35s-3.67-7.86-8.88-7.86Zm0 14.8h-2a.67.67 0 0 1-.8-.66 12.12 12.12 0 0 1-.12-1.62c0-1.06-.07-2.63-.07-3.94 0-2.42.09-4.83.19-7.25a11.24 11.24 0 0 1 1.76-.12c4.18 0 7 2.37 7 6.76.09 3.86-1.76 6.84-5.92 6.84Zm3.61 14.15a2.78 2.78 0 0 0 2.28-2.65c0-1.95-1.69-2.51-3.33-2.51H54.53a1.11 1.11 0 0 1 .21.61c.07 1 0 2.53 0 3.8v4.01a.54.54 0 0 0 .66.59h1.2a26.39 26.39 0 0 1-.16-3.54h1c.7 1.13 1.38 2.18 2.2 3.28a2.91 2.91 0 0 0 2.63 1.31h.49a31 31 0 0 1-3.85-4.9Zm-2-.47h-.46v-.91c0-.68 0-2.32.07-3h.78a2.09 2.09 0 0 1 2.32 2c-.01 1.49-1.37 1.91-2.66 1.91Zm-24.16-15-4.83-11.13a.82.82 0 0 0-.8-.7h-.31l-5.62 11.96a1.18 1.18 0 0 0-.14.59c0 .21.26.26.47.26h1.24a1.07 1.07 0 0 1 0-.28 2.08 2.08 0 0 1 .14-.7L24 18.5h4.81l1.34 3.28a.77.77 0 0 0 .82.59h2.39a2.75 2.75 0 0 1-.61-.91Zm-8.26-4 2.07-4.74 1.88 4.74h-3.9Zm17.75.36a5.59 5.59 0 0 0 4.2-5.35c0-3.38-3-4.62-6-4.62-1.9 0-3.82 0-5.75.07a4.83 4.83 0 0 1 .33 1.85v6.05c0 4.48-.21 7.06-.21 7.91 0 .35.14.4.45.4h3a1.85 1.85 0 0 1-.21-.87 36.7 36.7 0 0 1-.31-4.9h2c.83 1.31 1.86 2.84 3 4.39 1.77 2.32 4.17 5 7 5a20.5 20.5 0 0 0 2.08-.14c-3.29-1.21-7.56-6.79-9.53-9.74Zm-2.93-.66h-1.64v-2.77c0-1.69 0-3.61.14-5.25.54-.05 1.1-.1 1.64-.1 2.39 0 4.32 1.27 4.32 3.85a4.19 4.19 0 0 1-4.41 4.32Z" transform="translate(0 -1)" style="fill:#fff"/><path style="fill:#fff" d="M0 46.92h100v2.35H0z"/></svg>